<?xml version="1.0" standalone="no"?>
<!DOCTYPE svg PUBLIC "-//W3C//DTD SVG 1.1//EN" "http://www.w3.org/Graphics/SVG/1.1/DTD/svg11.dtd">
<svg xmlns="http://www.w3.org/2000/svg">
<defs >
<font id="Manjari" horiz-adv-x="1847" ><font-face
    font-family="Manjari"
    units-per-em="2048"
    panose-1="2 0 8 3 0 0 0 0 0 0"
    ascent="1500"
    descent="-900"
    alphabetic="0" />
<glyph unicode=" " glyph-name="space" horiz-adv-x="560" />
<glyph unicode="!" glyph-name="exclam" horiz-adv-x="352" d="M170 1360H171Q208 1360 242 1335T276 1267L248 416Q248 380 230 352T171 323Q131 323 113 351T95 416L65 1267Q65 1309 99 1334T170 1360ZM176 221Q226 221 261 186T297 100Q297 50 262 15T176 -21Q126
-21 91 14T55 100Q55 150 90 185T176 221Z" />
<glyph unicode="&quot;" glyph-name="quotedbl" horiz-adv-x="702" d="M505 795Q463 795 445 825T425 896L395 1216Q394 1262 432 1288T507 1316Q547 1317 588 1289T627 1213L585 896Q582 854 564 825T505 795ZM185 792Q143 792 125 822T105 893L75 1213Q74 1259
112 1285T187 1313Q227 1314 268 1286T307 1210L265 893Q262 851 244 822T185 792Z" />
<glyph unicode="#" glyph-name="numbersign" horiz-adv-x="937" d="M824 754L774 475H960V322H747L680 -55H514L580 322H386L316 -55H152L223 322H43V475H252L304 754H113V907H332L398 1256H561L496 907H684L746 1256H913L851 907H1016V754H824ZM467 754L415 475H608L657
754H467Z" />
<glyph unicode="$" glyph-name="dollar" horiz-adv-x="1452" d="M743 -261Q701 -261 671 -224T640 -135V-8Q465 11 324 92T112 309Q100 330 100 356Q100 397 129 426T200 456Q226 456 252 440T289 401Q336 311 427 258T640 191V614Q545 629 453 656T285 728T165
843T120 1013Q120 1114 164 1190T283 1318T450 1401T639 1442V1446Q639 1494 667 1533T736 1572Q783 1572 813 1536T844 1446V1440Q991 1419 1110 1343T1290 1154Q1302 1133 1302 1105Q1302 1064 1273 1035T1202 1005Q1177 1005 1151 1021T1113 1059Q1034 1204
844 1238V790Q936 780 1026 760T1190 701T1308 594T1352 421Q1352 288 1280 198T1092 57T845 -8V-135Q845 -187 815 -224T743 -261ZM639 1241Q563 1231 490 1204T370 1132T323 1020Q323 960 369 920T489 855T639 816V1241ZM845 193Q921 204 991 230T1107 304T1152
420Q1152 490 1105 523T986 569T845 589V193Z" />
<glyph unicode="%" glyph-name="percent" horiz-adv-x="1584" d="M1310 1422Q1351 1394 1356 1352T1340 1279L409 13Q387 -23 347 -30T276 -17Q240 8 230 49T246 127L1176 1394Q1198 1423 1236 1434T1310 1422ZM369 1429Q469 1429 549 1380T675 1249T722 1070Q722
971 675 889T546 758T364 709Q269 709 187 755T56 879T6 1053Q6 1158 51 1243T178 1379T369 1429ZM533 1071Q533 1137 484 1187T366 1238Q296 1238 246 1186T195 1067Q195 1001 245 951T363 900Q437 900 485 950T533 1071ZM1233 722Q1333 722 1413 673T1539 542T1586
363Q1586 264 1539 182T1410 51T1228 2Q1132 2 1051 48T920 172T870 346Q870 451 915 536T1041 672T1233 722ZM1397 364Q1397 429 1348 480T1230 531Q1159 531 1109 479T1059 360Q1059 294 1109 244T1227 193Q1300 193 1348 243T1397 364Z" />
<glyph unicode="&amp;" glyph-name="ampersand" horiz-adv-x="1216" d="M883 1061Q883 958 824 874T653 720Q706 654 752 598T837 494Q858 569 861 646Q862 681 889 708T956 735Q985 735 1018 714T1051 657Q1051 480 975 325Q1049 231 1086 185T1128 131Q1141
113 1141 79Q1141 39 1112 13T1043 -13Q998 -13 968 27Q937 69 910 104T863 165Q797 94 705 44T494 -6Q379 -6 284 44T133 181T76 379Q76 530 156 617T369 776Q325 834 278 906T231 1068Q231 1155 276 1226T394 1339T551 1381Q645 1381 720 1339T839 1225T883 1061ZM536
864Q619 914 656 963T693 1062Q693 1115 655 1152T560 1189Q502 1189 461 1154T420 1060Q420 1018 448 978T536 864ZM486 630Q398 584 331 526T264 393Q264 305 329 245T495 185Q572 185 638 225T744 311Q681 389 617 468T486 630Z" />
<glyph unicode="&apos;" glyph-name="quotesingle" horiz-adv-x="382" d="M185 930Q143 930 125 960T105 1031L75 1351Q74 1397 112 1423T187 1451Q227 1452 268 1424T307 1348L265 1031Q262 989 244 960T185 930Z" />
<glyph unicode="(" glyph-name="parenleft" horiz-adv-x="705" d="M631 -276Q631 -317 603 -348T533 -380Q496 -380 469 -358Q364 -277 274 -157T130 114T75 440Q75 614 128 765T270 1037T463 1238Q490 1260 527 1260Q569 1260 597 1229T625 1157Q625 1109 585
1080Q503 1016 432 919T318 701T275 441Q275 303 319 181T435 -39T590 -200Q631 -229 631 -276Z" />
<glyph unicode=")" glyph-name="parenright" horiz-adv-x="732" d="M120 1127Q120 1168 148 1199T218 1231Q255 1231 282 1209Q387 1128 477 1008T621 737T676 411Q676 237 623 86T481 -186T288 -387Q261 -409 224 -409Q182 -409 154 -378T126 -306Q126 -258 166
-229Q248 -165 319 -68T433 150T476 410Q476 548 432 670T316 890T161 1051Q120 1080 120 1127Z" />
<glyph unicode="*" glyph-name="asterisk" horiz-adv-x="955" d="M-24 1236Q-24 1274 1 1305T67 1337Q97 1337 122 1322L390 1159L386 1362V1378Q386 1413 418 1436T481 1459Q520 1459 548 1431T576 1364L580 1160L834 1323Q860 1339 890 1339Q922 1339 951 1314T981
1253Q981 1192 936 1163L666 990L935 827Q981 799 981 750Q981 713 956 682T890 650Q861 650 836 665L583 818L588 549V533Q588 498 556 475T493 452Q454 452 426 480T398 547L393 817L122 643Q99 628 66 628Q25 628 0 659T-25 728Q-25 775 20 803L307 987L23 1160Q-24
1189 -24 1236Z" />
<glyph unicode="+" glyph-name="plus" horiz-adv-x="1162" d="M574 969H576Q617 969 646 940T676 869V868L680 586H963Q1004 586 1033 557T1063 486Q1063 445 1034 416T963 386H682L685 103V100Q685 59 656 30T585 0Q544 0 515 29T485 100L482 386H200Q159 386
130 415T100 486Q100 527 129 556T200 586H480L476 866V869Q476 910 505 939T574 969Z" />
<glyph unicode="," glyph-name="comma" horiz-adv-x="505" d="M100 139Q100 193 139 238T231 283Q278 283 309 267Q406 215 406 97Q406 42 385 -28Q336 -191 211 -274Q192 -287 171 -287Q143 -287 123 -265T102 -212Q102 -179 137 -155Q218 -102 246 -5H244Q185
-5 143 37T100 139Z" />
<glyph unicode="-" glyph-name="hyphen" horiz-adv-x="1162" d="M200 674H963Q1004 674 1033 645T1063 574Q1063 533 1034 504T963 474H200Q159 474 130 503T100 574Q100 615 129 644T200 674Z" />
<glyph unicode="." glyph-name="period" horiz-adv-x="489" d="M244 -4Q176 -4 126 44T75 161Q75 230 125 277T244 325Q312 325 363 278T414 161Q414 92 363 44T244 -4Z" />
<glyph unicode="/" glyph-name="slash" horiz-adv-x="1011" d="M874 1447Q919 1427 931 1387T928 1312L266 -19Q250 -58 212 -72T140 -71Q100 -53 83 -15T85 65L747 1396Q764 1428 799 1446T874 1447Z" />
<glyph unicode="0" glyph-name="zero" horiz-adv-x="1200" d="M597 -25Q457 -25 356 34T191 195T97 422T66 680Q66 817 97 943T195 1169T366 1327T615 1385Q752 1382 850 1323T1012 1164T1105 942T1135 688Q1135 550 1104 423T1008 194T841 34T597 -25ZM601 175Q720
175 793 247T901 438T935 696Q935 826 901 937T793 1117T604 1185Q486 1185 411 1116T301 932T266 682Q266 546 300 431T409 245T601 175Z" />
<glyph unicode="1" glyph-name="one" horiz-adv-x="1200" d="M380 983Q346 983 319 1013T292 1076Q292 1108 309 1140T364 1180Q402 1188 442 1224T521 1331Q551 1387 604 1387Q647 1387 679 1362T712 1292L711 186H830Q865 186 888 154T911 91Q911 52 883 24T816
-4H384Q345 -4 317 24T289 91Q289 121 312 153T370 186H511V1025Q483 1009 453 996T380 983Z" />
<glyph unicode="2" glyph-name="two" horiz-adv-x="1200" d="M214 -3Q173 -3 144 26T114 97Q114 148 145 202T222 308T315 403T394 474Q457 529 530 576T668 676T775 796T817 957Q817 1030 784 1088T695 1180T569 1215Q482 1215 420 1160T342 1035Q335 1003 307
979T243 955Q202 955 173 984T143 1053Q143 1127 180 1192T278 1308T416 1386T571 1415Q701 1415 801 1355T959 1191T1017 961Q1017 829 966 734T837 569T676 441T528 328Q456 264 401 197H986Q1027 197 1056 168T1086 97Q1086 56 1057 27T986 -3H214Z" />
<glyph unicode="3" glyph-name="three" horiz-adv-x="1200" d="M813 990Q813 1065 751 1121T603 1177Q536 1177 480 1140T408 1061Q394 1024 369 1002T298 980Q265 980 236 1008T207 1069Q207 1083 209 1093T214 1111Q255 1219 356 1297T603 1376Q714 1376 807
1325T957 1185T1014 982Q1014 895 978 827T893 712Q963 664 1004 590T1045 419Q1045 292 980 194T809 39T579 -17Q445 -17 340 47T174 195Q155 222 155 254Q155 295 187 320T260 345Q307 345 337 305Q372 260 435 222T573 184Q647 184 708 215T807 298T845 415Q845
516 777 553T584 592Q545 592 517 620T488 691Q488 746 525 771T601 797Q693 797 753 843T813 990Z" />
<glyph unicode="4" glyph-name="four" horiz-adv-x="1200" d="M778 -21Q736 -21 707 7T678 75L677 371L124 373Q84 373 54 401T24 470Q24 507 45 534L696 1322Q725 1359 772 1359Q814 1359 844 1331T874 1262L877 573Q927 573 977 573T1077 572Q1118 572 1147
543T1177 472Q1177 430 1148 400T1075 370L877 371L878 75Q878 35 849 7T778 -21ZM677 573L675 989L331 575L677 573Z" />
<glyph unicode="5" glyph-name="five" horiz-adv-x="1200" d="M262 590Q222 590 191 614T159 680L265 1293Q271 1330 299 1353T363 1377H975Q1012 1377 1043 1350T1075 1285Q1075 1241 1048 1209T975 1177H447L401 918Q492 957 591 957Q732 957 845 893T1026 719T1093
469Q1093 329 1025 217T841 40T582 -25Q473 -25 382 14T224 117T118 258Q108 279 108 307Q108 341 137 368T202 395Q270 395 298 341Q334 273 407 224T583 175Q671 175 741 213T852 318T893 467Q893 591 806 673T578 755Q508 755 441 715T341 631Q313 590 262 590Z"
/>
<glyph unicode="6" glyph-name="six" horiz-adv-x="1200" d="M642 -18Q498 -18 392 44T216 212T112 448T77 713Q77 846 113 970T220 1194T398 1352T646 1411Q789 1411 895 1343T1057 1179Q1071 1158 1071 1124Q1071 1091 1044 1061T980 1031Q914 1031 883 1080Q851
1133 790 1172T646 1212Q532 1212 455 1153T335 997T281 783Q342 847 432 892T624 937Q766 937 879 873T1058 699T1124 450Q1124 326 1063 219T893 47T642 -18ZM646 181Q769 181 846 260T924 460Q924 535 885 598T780 700T636 739Q557 739 492 700T388 597T349
457Q349 381 392 319T503 219T646 181Z" />
<glyph unicode="7" glyph-name="seven" horiz-adv-x="1200" d="M1012 1380Q1050 1380 1081 1354T1112 1284Q1112 1261 1101 1239Q950 950 824 651T595 44Q585 10 558 -7T492 -25Q459 -25 430 2T400 62Q400 73 401 83T406 102Q499 380 610 649T852 1180H189Q148
1180 119 1209T89 1280Q89 1321 118 1350T189 1380H1012Z" />
<glyph unicode="8" glyph-name="eight" horiz-adv-x="1200" d="M1016 984Q1016 816 878 707Q953 657 1007 575T1061 382Q1061 261 995 171T824 31T600 -19Q481 -19 376 30T206 170T140 384Q140 496 194 577T321 708Q260 758 223 831T185 999Q185 1107 243 1193T396
1329T598 1380Q710 1380 805 1329T958 1188T1016 984ZM384 996Q384 917 448 862T601 807Q687 807 751 858T816 995Q816 1046 785 1088T706 1156T604 1181Q515 1181 450 1128T384 996ZM859 386Q859 444 823 490T727 563T598 590Q531 590 472 565T377 494T340 386Q340
327 376 281T471 208T600 181Q670 181 728 207T823 280T859 386Z" />
<glyph unicode="9" glyph-name="nine" horiz-adv-x="1218" d="M67 915Q67 1038 128 1144T299 1317T556 1383Q696 1383 803 1320T984 1148T1095 905T1133 626Q1133 500 1099 381T996 165T823 12T576 -45Q446 -45 345 15T185 160Q167 183 167 219Q167 254 194 283T261
313Q320 313 351 270Q385 223 443 189T576 154Q698 154 776 218T892 386T932 608Q870 532 776 481T560 430Q425 430 313 491T134 662T67 915ZM545 1185Q461 1185 399 1147T302 1046T267 907Q267 829 307 765T414 664T557 626Q639 626 703 666T805 772T843 910Q843
990 800 1052T688 1149T545 1185Z" />
<glyph unicode=":" glyph-name="colon" horiz-adv-x="461" d="M229 686Q161 686 111 734T60 851Q60 920 110 967T229 1015Q297 1015 348 968T399 851Q399 782 348 734T229 686ZM231 172Q163 172 113 220T62 337Q62 406 112 453T231 501Q299 501 350 454T401 337Q401
268 350 220T231 172Z" />
<glyph unicode=";" glyph-name="semicolon" horiz-adv-x="476" d="M239 574Q171 574 121 621T70 738Q70 807 120 856T239 905Q307 905 358 856T409 738Q409 669 358 622T239 574ZM216 306Q314 306 365 242T416 95Q416 33 394 -37Q340 -211 210 -297Q184 -314 156
-314Q116 -314 89 -284T62 -214Q62 -168 108 -137Q166 -98 196 -29Q137 -17 99 29T60 137Q60 200 106 253T216 306Z" />
<glyph unicode="&lt;" glyph-name="less" horiz-adv-x="1227" d="M1021 963Q1036 970 1058 970Q1097 970 1125 942T1153 875Q1153 847 1136 822T1092 786L423 521L1093 244Q1119 234 1136 210T1153 156Q1153 117 1125 89T1058 61Q1037 61 1020 68L133 435Q108
446 92 471T75 523Q75 551 92 576T135 611L1021 963Z" />
<glyph unicode="=" glyph-name="equal" horiz-adv-x="1109" d="M75 702Q75 732 98 764T156 797Q168 797 175 796H956Q992 796 1013 763T1035 702Q1035 672 1013 638T954 604H156Q120 604 98 638T75 702ZM75 378Q75 401 93 438T148 476L171 475H939L954 476Q990
476 1012 442T1035 378Q1035 348 1012 316T954 283H156Q122 283 99 315T75 378Z" />
<glyph unicode="&gt;" glyph-name="greater" horiz-adv-x="1227" d="M207 963L1093 611Q1119 601 1136 576T1153 523Q1153 496 1137 471T1095 435L208 68Q191 61 170 61Q131 61 103 89T75 156Q75 185 92 209T135 244L805 521L136 786Q110 796 93 821T75 875Q75
914 103 942T170 970Q192 970 207 963Z" />
<glyph unicode="?" glyph-name="question" horiz-adv-x="949" d="M75 958Q75 1065 128 1144T268 1268T458 1312Q602 1312 708 1242T855 1058Q874 1005 874 949Q874 853 834 782T739 660T638 568Q595 531 568 500T540 413Q540 403 543 390T546 359Q546 322 520
297T456 271Q414 271 394 295T367 353T360 414Q360 501 396 563T484 673T585 760T661 843Q676 868 685 892T694 949Q694 1035 626 1083T460 1132Q373 1132 314 1086T255 957Q255 953 255 947T256 933Q256 896 230 871T166 846Q115 846 95 882T75 958ZM474 221Q524
221 559 186T595 100Q595 50 560 15T474 -21Q424 -21 389 14T353 100Q353 150 388 185T474 221Z" />
<glyph unicode="@" glyph-name="at" horiz-adv-x="1783" d="M866 56Q745 56 649 114T496 271T440 491Q440 600 496 695T646 849T846 909Q979 909 1082 843Q1093 873 1118 892T1176 911Q1217 911 1246 882T1276 811V321Q1276 295 1304 274T1369 252Q1439 252 1472
317T1506 462Q1506 590 1456 703T1319 901T1125 1035T900 1084Q764 1084 650 1035T451 900T320 706T273 480Q273 356 316 245T439 47T628 -88T869 -137Q971 -137 1088 -97Q1106 -91 1122 -87T1153 -83Q1193 -83 1213 -109T1233 -176Q1233 -257 1157 -286Q1013 -341
869 -341Q696 -341 551 -275T298 -95T133 167T74 477Q74 630 134 775T305 1037T567 1223T900 1292Q1052 1292 1189 1232T1436 1067T1616 825T1704 537Q1706 518 1707 499T1708 463Q1708 359 1670 264T1556 109T1369 49Q1296 49 1237 78T1136 162Q1085 117 1017
87T866 56ZM858 707Q799 707 749 676T670 595T640 483Q640 393 700 325T858 257Q953 257 1015 321T1079 480Q1078 575 1014 641T858 707Z" />
<glyph unicode="A" glyph-name="A" horiz-adv-x="1400" d="M608 1395Q619 1420 645 1437T700 1455Q727 1455 754 1438T792 1395L1342 119Q1351 99 1351 78Q1351 37 1322 8T1251 -22Q1223 -22 1196 -4T1158 39L987 436L417 444L242 38Q232 13 205 -5T150 -24Q109
-24 80 5T50 76Q50 97 59 117L608 1395ZM700 1102L503 643L900 638L700 1102Z" />
<glyph unicode="B" glyph-name="B" horiz-adv-x="1283" d="M101 740V753L100 1330Q100 1371 129 1400T198 1430L461 1435Q483 1436 504 1436T545 1436Q655 1436 759 1412T945 1338T1076 1209T1125 1018Q1125 874 1026 770Q1096 719 1140 636T1184 442Q1184 300
1123 203T955 54T709 0L204 -1H202Q161 -1 132 28T102 99L101 740ZM925 1012Q925 1103 864 1151T710 1218T523 1236Q509 1236 494 1236T465 1235L300 1232L301 847L686 853Q747 854 801 867T890 915T925 1012ZM705 200Q839 202 911 257T984 447Q984 566 905 609T703
653H690L301 647L302 201L705 200Z" />
<glyph unicode="C" glyph-name="C" horiz-adv-x="1430" d="M1286 531Q1322 531 1351 503T1381 439Q1381 411 1371 391Q1321 281 1230 187T1012 35T729 -22Q574 -22 449 37T236 198T100 434T52 717Q52 864 100 997T237 1232T450 1394T726 1453Q880 1453 1005 1399T1223
1254T1368 1055Q1379 1034 1379 1011Q1379 974 1353 944T1291 913Q1257 913 1230 927T1188 971Q1132 1087 1013 1170T726 1253Q581 1253 475 1179T310 983T252 715Q252 569 309 447T473 252T727 179Q837 179 928 219T1087 327T1189 471Q1216 531 1286 531Z" />
<glyph unicode="D" glyph-name="D" horiz-adv-x="1384" d="M557 1437H572Q748 1437 881 1376T1103 1210T1238 976T1284 711Q1284 505 1192 344T919 91T474 -1H427L199 1Q159 2 130 32T100 104L107 1331Q107 1371 136 1400T205 1431L557 1437ZM1106 717Q1106 903
1027 1017T805 1183T469 1236Q428 1236 388 1235T306 1232L300 203L429 201Q630 201 782 249T1020 411T1106 717Z" />
<glyph unicode="E" glyph-name="E" horiz-adv-x="1183" d="M75 1336Q75 1376 104 1404T175 1433L1032 1432H1033Q1074 1432 1103 1403T1133 1332Q1133 1291 1104 1262T1033 1232H1032L275 1233L276 823L950 818Q993 818 1021 788T1050 711Q1050 671 1019 644T950
616H949L277 621L278 198L1032 199H1033Q1074 199 1103 170T1133 99Q1133 58 1104 29T1033 -1H1032L178 -2Q137 -2 108 27T78 97L75 1336Z" />
<glyph unicode="F" glyph-name="F" horiz-adv-x="1166" d="M75 1336Q75 1377 104 1405T175 1434L990 1435H991Q1032 1435 1061 1406T1091 1335Q1091 1294 1062 1265T991 1235H990L275 1234L276 870L797 875H808Q848 875 873 843T898 781Q898 738 870 707T798 675L277
670L278 88V86Q278 46 249 17T178 -12Q137 -12 108 17T78 86V87L75 1336Z" />
<glyph unicode="G" glyph-name="G" horiz-adv-x="1398" d="M55 699Q55 846 107 982T256 1224T486 1393T782 1455Q931 1455 1052 1414T1280 1298Q1323 1269 1323 1218Q1323 1178 1294 1149T1223 1119Q1191 1119 1164 1138Q1086 1191 988 1222T787 1254Q670 1254
573 1210T404 1088T293 911T253 703Q253 554 318 438T501 256T775 190Q861 190 945 207T1100 246L1097 587H792Q751 587 722 616T692 687Q692 728 721 757T792 787H1197Q1238 787 1267 758T1297 688L1301 177V176Q1301 148 1283 122T1238 86Q1142 48 1026 19T782
-11Q572 -11 408 80T149 331T55 699Z" />
<glyph unicode="H" glyph-name="H" horiz-adv-x="1300" d="M75 1369Q75 1408 107 1432T169 1456Q211 1455 243 1429T275 1359L276 797L1024 798L1025 1359Q1022 1399 1052 1427T1124 1456Q1165 1456 1195 1428T1225 1359L1224 88Q1224 48 1195 20T1124 -9Q1083
-9 1054 18T1024 86V596L277 595L278 85Q278 44 249 16T178 -12Q137 -12 108 16T78 85Q77 403 77 721T75 1358V1369Z" />
<glyph unicode="I" glyph-name="I" horiz-adv-x="401" d="M201 -10Q160 -10 131 19T101 90L100 1341Q100 1379 128 1410T195 1441Q241 1441 270 1413T300 1341L301 90Q301 49 272 20T201 -10Z" />
<glyph unicode="J" glyph-name="J" horiz-adv-x="923" d="M120 454Q166 454 195 427T225 358V357Q225 289 278 239T404 188Q498 188 551 238T626 376T649 574V607L639 1356V1358Q639 1397 669 1426T739 1455Q780 1455 809 1427T839 1358L849 606V570Q849 411 805
279T664 68T406 -11Q300 -11 214 37T76 169T25 357Q25 395 53 424T120 454Z" />
<glyph unicode="K" glyph-name="K" horiz-adv-x="1194" d="M75 115Q75 156 76 215T77 364L78 1344Q78 1385 106 1413T177 1441Q218 1441 248 1412T278 1342Q279 1215 279 1086T280 831L965 1405Q996 1433 1032 1433Q1075 1433 1103 1401T1131 1331Q1131 1290 1097
1260L539 796L1141 149Q1170 118 1170 85Q1170 45 1139 17T1067 -12Q1050 -12 1031 -6T997 14L388 667L279 574Q278 387 277 252T275 78Q275 35 243 11T173 -14Q117 -14 96 24T75 115Z" />
<glyph unicode="L" glyph-name="L" horiz-adv-x="1181" d="M198 -8Q157 -8 128 21T98 91L95 1360V1361Q95 1401 124 1429T195 1458Q236 1458 265 1430T295 1361L298 192L1055 194H1056Q1097 194 1126 165T1156 94Q1156 53 1127 24T1056 -6H1055L198 -8Z" />
<glyph unicode="M" glyph-name="M" horiz-adv-x="1558" d="M179 0Q138 0 109 29T79 100L76 1341Q75 1350 75 1359Q75 1373 81 1386T97 1413Q121 1452 166 1452Q238 1452 265 1396L800 523L1295 1397Q1325 1447 1376 1447Q1419 1447 1451 1419T1483 1347V96Q1483
55 1454 26T1383 -4Q1342 -4 1313 25T1283 96V990L890 276Q879 258 856 242T806 225Q748 225 717 273L276 994L279 101V100Q279 59 250 30T179 0Z" />
<glyph unicode="N" glyph-name="N" horiz-adv-x="1285" d="M75 1336Q75 1378 105 1405T178 1433Q225 1433 255 1395L1010 370V1333Q1010 1373 1039 1401T1110 1430Q1151 1430 1180 1402T1210 1333L1209 79Q1209 37 1179 10T1106 -18Q1059 -18 1029 22L275 1046V80Q275
40 246 12T175 -17Q134 -17 105 11T75 80V1336Z" />
<glyph unicode="O" glyph-name="O" horiz-adv-x="1503" d="M750 1451Q903 1451 1031 1392T1255 1229T1402 991T1454 705Q1454 554 1403 422T1257 188T1035 30T751 -27Q593 -27 464 30T243 189T100 424T50 711Q50 860 102 993T249 1229T471 1392T750 1451ZM754
1248Q606 1248 493 1171T315 968T250 691Q250 589 289 496T397 331T556 217T750 175Q853 175 944 218T1106 334T1217 498T1257 686Q1257 841 1190 968T1008 1172T754 1248Z" />
<glyph unicode="P" glyph-name="P" horiz-adv-x="1069" d="M177 -15Q136 -15 107 13T77 82V83L75 1336Q75 1363 100 1397T174 1433L489 1435Q635 1435 754 1388T944 1244T1015 1000Q1015 831 941 728T739 577T446 524L276 520L277 81V80Q277 40 248 13T177 -15ZM815
999Q815 1124 727 1179T482 1234H275L276 722L443 726Q619 730 717 786T815 999Z" />
<glyph unicode="Q" glyph-name="Q" horiz-adv-x="1560" d="M1412 -122Q1450 -122 1474 -155T1499 -221Q1499 -275 1463 -298T1379 -327T1293 -332H1244Q1054 -332 903 -268T685 -72Q498 -53 355 49T131 316T50 682Q50 841 102 980T252 1227T484 1394T783 1455Q947
1455 1080 1396T1310 1232T1458 988T1510 690Q1510 498 1437 339T1236 74T939 -63Q1047 -142 1212 -142Q1254 -142 1304 -132T1412 -122ZM264 678Q264 524 326 395T505 188T780 110Q942 110 1056 188T1231 398T1292 688Q1292 846 1232 976T1059 1185T784 1263Q666
1263 570 1216T406 1086T301 898T264 678Z" />
<glyph unicode="R" glyph-name="R" horiz-adv-x="1203" d="M1149 72Q1149 33 1121 5T1059 -24Q1031 -24 1010 -5T981 25Q890 89 824 170T710 348Q669 434 627 482T524 550T368 571L277 572L278 88V86Q278 46 249 16T178 -14Q137 -14 108 18T78 94L75 1335Q75 1377
104 1405T174 1435L440 1436H463Q635 1436 770 1386T983 1235T1061 985Q1061 889 1022 814T918 687T780 606Q814 563 848 500Q906 389 961 304T1106 153Q1124 141 1136 120T1149 72ZM468 1236H275L277 758L470 760Q654 762 758 816T863 989Q863 1111 752 1173T468
1236Z" />
<glyph unicode="S" glyph-name="S" horiz-adv-x="1357" d="M684 1453Q799 1453 901 1414T1081 1306T1198 1146Q1207 1126 1207 1105Q1207 1064 1178 1035T1107 1005Q1080 1005 1053 1022T1015 1065Q977 1151 889 1202T684 1253Q627 1253 564 1239T444 1197T353
1125T318 1025Q318 979 348 946T415 893Q502 850 607 833T821 800T1022 744Q1081 719 1135 675T1223 568T1257 420Q1257 310 1204 227T1065 89T879 7T682 -21Q552 -21 438 20T239 138T109 318Q100 338 100 358Q100 399 129 428T200 458Q228 458 255 441T292 397Q336
296 441 238T682 179Q767 179 853 204T997 283T1056 420Q1056 473 1021 507T943 560Q848 601 740 616T525 649T325 714Q246 754 182 830T117 1025Q117 1129 167 1208T301 1342T485 1425T684 1453Z" />
<glyph unicode="T" glyph-name="T" horiz-adv-x="1251" d="M25 1331Q25 1372 54 1401T125 1431H126L1125 1437H1127Q1168 1437 1197 1408T1227 1337Q1227 1296 1198 1267T1127 1237H1126L728 1235L723 87V86Q723 46 694 17T623 -12Q582 -12 553 17T523 86V88L528
1234L126 1231H125Q84 1231 55 1260T25 1331Z" />
<glyph unicode="U" glyph-name="U" horiz-adv-x="1326" d="M75 1336Q75 1374 103 1404T170 1434Q217 1434 245 1409T275 1336L282 613Q284 397 369 272T651 147Q797 147 885 204T1012 363T1051 598L1049 1337V1338Q1049 1379 1078 1407T1148 1436Q1189 1436 1219
1408T1249 1338V1337L1251 598Q1251 298 1103 123T655 -52Q462 -52 336 33T147 268T82 610L75 1335V1336Z" />
<glyph unicode="V" glyph-name="V" horiz-adv-x="1353" d="M25 1340Q25 1375 54 1404T120 1433Q192 1433 217 1373L700 275L1135 1384Q1159 1447 1233 1447Q1270 1447 1299 1419T1328 1354Q1328 1326 1321 1308L799 -16Q789 -41 764 -60T706 -80Q643 -80 615 -20L34
1291Q25 1309 25 1340Z" />
<glyph unicode="W" glyph-name="W" horiz-adv-x="1805" d="M813 1380Q822 1408 849 1427T908 1446Q942 1446 968 1425T1003 1376L1310 398L1583 1339Q1591 1381 1618 1411T1680 1442Q1723 1442 1751 1406T1780 1321Q1780 1301 1775 1286L1412 53Q1403 23 1376
4T1317 -16Q1287 -16 1259 2T1221 50L905 957L571 20Q555 4 532 -6T476 -16Q444 -16 416 3T379 53L29 1273Q25 1289 25 1308Q25 1357 53 1393T125 1429Q160 1429 187 1398T222 1324L485 392L813 1380Z" />
<glyph unicode="X" glyph-name="X" horiz-adv-x="1284" d="M1091 1429Q1133 1429 1162 1400T1191 1329Q1191 1294 1170 1268L766 730L1214 137Q1235 111 1235 76Q1235 35 1206 6T1135 -24Q1114 -24 1091 -12T1054 17L641 564L231 19Q218 2 195 -10T150 -23Q109
-23 80 6T50 77Q50 113 71 139L515 730L107 1271Q86 1297 86 1332Q86 1373 115 1402T186 1432Q208 1432 231 1420T267 1391L641 896L1010 1388Q1023 1405 1046 1417T1091 1429Z" />
<glyph unicode="Y" glyph-name="Y" horiz-adv-x="1129" d="M25 1363Q25 1404 58 1430T131 1456Q183 1456 211 1408L568 793L917 1402Q927 1418 949 1433T996 1448Q1019 1448 1037 1444T1076 1418Q1104 1388 1104 1355Q1104 1323 1089 1298L664 576L657 78Q657
38 628 10T557 -19Q516 -19 487 9T457 78V80L464 589L41 1306Q25 1329 25 1363Z" />
<glyph unicode="Z" glyph-name="Z" horiz-adv-x="1369" d="M1207 -10L133 -17Q93 -17 63 11T33 82Q33 122 56 148L1027 1233L126 1232H125Q82 1232 54 1262T25 1333Q25 1374 56 1404T118 1435L1244 1433Q1284 1433 1314 1404T1344 1334Q1344 1294 1321 1268L350
183L1215 184H1216Q1260 184 1288 153T1316 79Q1316 43 1296 24T1252 -3T1214 -11Q1210 -11 1210 -11T1207 -10Z" />
<glyph unicode="[" glyph-name="bracketleft" horiz-adv-x="796" d="M200 1383H645Q686 1383 715 1354T745 1283Q745 1242 716 1213T645 1183H300L302 -280L645 -281H646Q687 -281 716 -310T746 -381Q746 -422 717 -451T646 -481H645L202 -480Q161 -480 132 -451T102
-380L100 1283Q100 1324 129 1353T200 1383Z" />
<glyph unicode="\" glyph-name="backslash" horiz-adv-x="961" d="M912 -43Q912 -76 886 -110T812 -145Q784 -145 760 -128T722 -86L60 1245Q50 1265 50 1287Q50 1323 78 1356T151 1389Q179 1389 204 1374T241 1329L903 -2Q912 -21 912 -43Z" />
<glyph unicode="]" glyph-name="bracketright" horiz-adv-x="796" d="M596 1384Q637 1384 666 1355T696 1284L694 -379Q694 -420 665 -449T594 -479L151 -480H150Q109 -480 80 -451T50 -380Q50 -339 79 -310T150 -280H151L494 -279L496 1184H151Q110 1184 81 1213T51
1284Q51 1325 80 1354T151 1384H596Z" />
<glyph unicode="^" glyph-name="asciicircum" horiz-adv-x="822" d="M333 1402Q345 1414 365 1423T404 1432Q443 1432 473 1404L790 1101Q804 1089 813 1067T822 1027Q822 986 793 957T722 927Q681 927 652 956L406 1192L172 955Q143 924 100 924Q59 924 30 953T0
1024Q0 1065 30 1095L333 1402Z" />
<glyph unicode="_" glyph-name="underscore" horiz-adv-x="1060" d="M50 98Q50 128 73 160T131 193Q143 193 150 192H931Q967 192 988 159T1010 98Q1010 68 988 34T929 0H131Q95 0 73 34T50 98Z" />
<glyph unicode="`" glyph-name="grave" horiz-adv-x="512" d="M0 1340Q0 1386 32 1413T101 1440Q139 1440 170 1411L470 1088Q513 1048 513 1012Q513 987 491 965T445 943Q410 943 370 983L32 1267Q0 1296 0 1340Z" />
<glyph unicode="a" glyph-name="a" horiz-adv-x="1276" d="M623 1100Q697 1100 767 1071T893 997T976 905L987 1001Q987 1042 1011 1071T1076 1101Q1117 1101 1146 1072T1176 1001V999L1174 73Q1174 32 1145 3T1074 -27Q1033 -27 1009 2T985 73L974 153Q922 64
822 21T621 -23Q508 -23 409 21T235 144T118 323T75 536Q75 647 116 748T232 929T406 1054T623 1100ZM968 538Q968 636 923 718T799 850T621 900Q523 900 444 850T319 718T273 539Q273 442 320 360T446 227T622 177Q718 177 796 227T921 359T968 538Z" />
<glyph unicode="b" glyph-name="b" horiz-adv-x="1211" d="M1161 539Q1161 428 1122 328T1012 151T846 28T637 -17Q544 -17 451 30T300 159L288 78Q282 37 262 8T200 -22Q159 -22 130 7T100 78V1355Q100 1396 129 1425T200 1455Q241 1455 270 1426T300 1355V934Q365
1009 445 1053T630 1097Q732 1097 827 1058T995 948Q1078 866 1119 759T1161 539ZM639 183Q732 183 805 233T920 364T962 539Q962 632 920 714T803 848T634 900Q539 900 465 851T349 721T307 544Q307 474 331 407T401 290Q446 241 510 212T639 183Z" />
<glyph unicode="c" glyph-name="c" horiz-adv-x="1098" d="M60 539Q60 650 99 750T209 928T374 1051T580 1096Q690 1096 779 1054T933 942T1030 790Q1037 773 1037 752Q1037 711 1008 682T937 652Q909 652 882 671T844 717Q816 789 747 842T580 896Q489 896 417
846T302 714T260 539Q260 444 303 361T421 226T590 174Q682 174 749 220T850 329Q862 351 888 366T939 382Q980 382 1009 353T1039 282Q1039 257 1026 233Q969 128 856 51T590 -26Q476 -26 380 19T212 144T100 324T60 539Z" />
<glyph unicode="d" glyph-name="d" horiz-adv-x="1211" d="M50 538Q50 651 92 758T216 947Q289 1018 384 1057T581 1096Q685 1096 766 1052T911 933V1354Q911 1395 940 1424T1011 1454Q1052 1454 1081 1425T1111 1354V77Q1111 36 1082 7T1011 -23Q970 -23 950
6T923 77L911 158Q854 76 761 29T574 -18Q461 -18 366 27T199 149T89 327T50 538ZM572 182Q637 182 701 211T810 289Q855 339 879 406T904 543Q904 639 862 720T747 850T577 899Q483 899 409 848T292 714T249 538Q249 445 291 364T406 232T572 182Z" />
<glyph unicode="e" glyph-name="e" horiz-adv-x="1131" d="M582 1092Q715 1092 826 1026T1004 849T1072 601Q1072 573 1069 544Q1065 507 1036 482T969 456L270 455Q287 383 334 320T448 218T596 179Q682 179 750 221T856 318Q868 337 892 350T939 363Q980 363
1009 333T1039 262Q1039 230 1021 205Q959 114 851 48T599 -19Q484 -19 386 26T214 149T101 328T60 543Q60 652 100 750T211 926T378 1047T582 1092ZM866 656Q847 754 768 823T582 892Q473 892 390 821T277 655L866 656Z" />
<glyph unicode="f" glyph-name="f" horiz-adv-x="811" d="M35 982Q35 1011 58 1038T116 1066L264 1067V1080Q267 1249 340 1345T577 1438L687 1436Q728 1436 757 1407T786 1336Q786 1295 757 1267T686 1239L574 1255Q522 1255 499 1240T469 1185T463 1074L464
1065L666 1064Q706 1064 733 1037T761 972Q761 940 735 911T676 881L464 879L466 73V72Q466 32 437 5T366 -23Q325 -23 296 4T266 72V73L264 881L130 882Q90 882 63 910T35 982Z" />
<glyph unicode="g" glyph-name="g" horiz-adv-x="1205" d="M1006 1099Q1047 1099 1076 1070T1106 999V997L1099 42Q1098 -70 1054 -169T931 -344T753 -463T539 -506Q412 -506 297 -451T101 -295Q78 -266 78 -231Q78 -190 107 -161T178 -131Q198 -131 221 -142T258
-170Q308 -232 384 -269T540 -306Q637 -306 718 -258T849 -130T899 45V143Q840 51 757 17T586 -18Q477 -18 384 29T221 156T114 337T75 547Q75 655 113 753T221 929T383 1051T586 1096Q681 1096 764 1052T905 918L920 998Q928 1039 946 1069T1006 1099ZM897 546Q897
637 857 716T748 846T589 896Q498 896 428 847T317 718T276 547Q276 457 316 374T426 236T586 182Q675 182 745 235T856 371T897 546Z" />
<glyph unicode="h" glyph-name="h" horiz-adv-x="1092" d="M95 1362Q95 1402 124 1430T195 1459Q236 1459 265 1431T295 1362V926Q333 1007 406 1050T547 1094Q704 1094 803 1030T950 852T997 589V580L996 75V74Q996 34 967 6T896 -23Q855 -23 826 5T796 74V75L797
575V577Q797 731 746 812T547 893Q422 893 360 806T297 582V73Q297 33 268 5T197 -24Q154 -24 125 5T95 73V1362Z" />
<glyph unicode="i" glyph-name="i" horiz-adv-x="392" d="M203 1198Q157 1198 128 1226T98 1297L96 1373Q96 1411 130 1434T195 1458Q237 1458 265 1429T295 1359L296 1299Q296 1260 270 1229T203 1198ZM95 1009Q95 1047 127 1071T189 1095Q233 1095 264 1069T295
1000V999L297 73Q297 33 268 5T197 -23Q155 -23 126 5T97 74L95 1009Z" />
<glyph unicode="j" glyph-name="j" horiz-adv-x="516" d="M408 1294Q408 1260 377 1239T318 1217Q280 1217 255 1243T228 1306L226 1363V1378Q226 1412 257 1434T316 1456Q354 1456 379 1430T406 1367L408 1309V1294ZM313 1094Q346 1094 381 1074T417 1011L421
27Q421 -106 381 -222T254 -409T24 -481Q-10 -481 -45 -475T-116 -453Q-175 -429 -175 -357Q-175 -325 -147 -298T-87 -270Q-59 -270 -42 -278Q-7 -293 28 -293Q106 -293 150 -248T212 -126T231 45L227 1014Q227 1044 256 1069T313 1094Z" />
<glyph unicode="k" glyph-name="k" horiz-adv-x="932" d="M95 1358Q95 1399 124 1428T195 1458Q236 1458 265 1429T295 1358V643L700 1064Q728 1096 773 1096Q814 1096 843 1067T873 996Q873 954 844 925L520 588L861 140Q882 114 882 78Q882 37 853 8T782 -22Q761
-22 738 -10T702 19L380 443L295 355V81Q295 40 266 11T195 -19Q154 -19 125 10T95 81V1358Z" />
<glyph unicode="l" glyph-name="l" horiz-adv-x="390" d="M190 1459Q238 1459 267 1428T295 1359V71Q295 31 264 7T201 -18Q158 -18 127 10T95 82V1359Q95 1397 122 1428T190 1459Z" />
<glyph unicode="m" glyph-name="m" horiz-adv-x="1593" d="M516 1096Q613 1096 686 1049T807 935Q863 1000 942 1048T1118 1097Q1246 1097 1330 1029T1456 849T1497 609L1498 76Q1498 36 1469 7T1398 -22Q1356 -22 1327 7T1298 76L1297 607Q1297 683 1283 749T1232
857T1125 898Q1051 898 999 857T919 750T891 606L892 73Q892 33 863 5T792 -24Q750 -24 721 5T692 74V605Q692 699 661 764T580 862T478 896Q404 896 345 827T286 612V73Q286 33 257 5T186 -24Q145 -24 116 5T86 74V999Q86 1040 101 1068T159 1097Q192 1097 220
1076T265 1006L284 951Q316 1017 382 1056T516 1096Z" />
<glyph unicode="n" glyph-name="n" horiz-adv-x="1086" d="M295 937Q349 990 424 1042T600 1094Q731 1094 818 1025T946 863Q978 790 984 719T991 584V79Q991 38 962 9T891 -21Q850 -21 821 8T791 79V584Q791 643 786 693T763 781Q744 825 704 859T602 894Q454
894 375 781T296 476L297 77Q297 36 268 7T197 -23Q155 -23 126 6T97 78L95 997Q95 1038 117 1067T181 1097Q222 1097 244 1068T278 997L295 937Z" />
<glyph unicode="o" glyph-name="o" horiz-adv-x="1196" d="M598 1095Q713 1095 812 1051T987 929T1104 750T1147 535Q1147 423 1104 323T986 146T811 25T598 -19Q486 -19 387 24T212 143T93 319T50 535Q50 649 93 750T211 928T386 1050T598 1095ZM252 533Q252
436 299 357T426 230T599 183Q695 183 773 231T898 360T945 535Q945 632 899 713T775 844T598 893Q499 893 421 844T298 713T252 533Z" />
<glyph unicode="p" glyph-name="p" horiz-adv-x="1211" d="M1161 536Q1161 423 1120 316T995 127Q922 56 827 17T630 -22Q526 -22 446 22T300 141V-280Q300 -321 271 -350T200 -380Q159 -380 130 -351T100 -280V997Q100 1038 129 1067T200 1097Q241 1097 261 1068T288
997L300 916Q357 998 450 1045T637 1092Q750 1092 845 1047T1012 925T1122 747T1161 536ZM639 892Q574 892 510 864T401 785Q356 736 332 669T307 531Q307 435 349 354T465 224T634 175Q729 175 803 226T919 360T962 536Q962 630 920 711T805 842T639 892Z" />
<glyph unicode="q" glyph-name="q" horiz-adv-x="1211" d="M50 537Q50 648 89 748T199 925T365 1048T574 1093Q667 1093 760 1046T911 917L923 998Q929 1039 949 1068T1011 1098Q1052 1098 1081 1069T1111 998V-279Q1111 -320 1082 -349T1011 -379Q970 -379 941
-350T911 -279V142Q847 67 766 23T581 -21Q479 -21 384 18T216 128Q134 210 92 317T50 537ZM572 893Q480 893 407 843T291 712T249 537Q249 444 291 362T408 228T577 176Q673 176 746 225T862 355T904 532Q904 602 880 669T810 786Q765 836 701 864T572 893Z" />
<glyph unicode="r" glyph-name="r" horiz-adv-x="788" d="M763 969Q763 889 686 880Q658 877 615 898T528 920Q441 920 390 876T317 756T295 588V72Q295 28 269 2T195 -24Q149 -24 122 2T95 73V994Q95 1039 117 1068T179 1097Q202 1097 232 1078T275 1011L285
939Q298 967 335 1004T423 1068T529 1096Q631 1096 697 1073T763 969Z" />
<glyph unicode="s" glyph-name="s" horiz-adv-x="1183" d="M602 1097Q745 1097 861 1035T1034 866Q1046 845 1046 818Q1046 777 1017 748T946 718Q921 718 895 734T857 773Q824 835 758 866T601 897Q548 897 481 883T365 838T316 754Q316 715 356 693T456 658T576
641T674 631Q748 623 820 607T952 558T1047 471T1083 331Q1083 210 1013 133T834 19T606 -18Q443 -18 310 46T112 235Q100 259 100 282Q100 323 129 352T200 382Q226 382 252 366T290 326Q329 250 410 216T605 182Q665 182 729 195T838 242T883 332Q883 376 845
395T753 421T653 432Q565 441 471 455T297 502T166 594T116 754Q116 844 159 909T275 1015T432 1077T602 1097Z" />
<glyph unicode="t" glyph-name="t" horiz-adv-x="766" d="M250 1274Q250 1315 279 1344T350 1374Q391 1374 420 1345T450 1274V1075H584Q623 1075 651 1047T679 980Q679 941 651 913T584 885H449L448 266V264Q448 215 459 197T504 178Q547 178 580 201Q592 209
609 215T642 222Q683 222 712 193T742 123Q742 74 702 44Q664 15 615 -4T510 -23Q384 -23 316 54T248 248V257L249 884H120Q81 884 53 912T25 979Q25 1018 53 1046T120 1074H250V1274Z" />
<glyph unicode="u" glyph-name="u" horiz-adv-x="1086" d="M792 135Q738 82 663 30T487 -22Q356 -22 269 47T141 209Q109 282 103 353T96 488V993Q96 1034 125 1063T196 1093Q237 1093 266 1064T296 993V488Q296 429 301 379T324 291Q343 247 383 213T485 178Q633
178 712 291T791 596L790 995Q790 1036 819 1065T890 1095Q932 1095 961 1066T990 994L992 75Q992 34 970 5T906 -25Q865 -25 843 4T809 75L792 135Z" />
<glyph unicode="v" glyph-name="v" horiz-adv-x="1050" d="M930 1095Q966 1095 995 1066T1025 1002Q1025 971 1015 951L593 38Q566 -19 501 -19Q434 -19 411 42L33 955Q25 972 25 1002Q25 1034 52 1064T114 1095Q192 1095 218 1033L509 325L834 1037Q861 1095 930 1095Z" />
<glyph unicode="w" glyph-name="w" horiz-adv-x="1502" d="M50 1013Q50 1046 79 1071T141 1096Q175 1096 201 1077T236 1030L436 351L673 1017H674Q699 1061 762 1061Q791 1061 816 1049T851 1016V1015L1081 367L1266 1029Q1274 1056 1299 1076T1360 1096Q1392
1096 1422 1073T1452 1014Q1452 992 1448 979L1186 55Q1179 30 1154 9T1095 -13Q1064 -13 1040 4T1005 46L763 715L517 40Q507 13 482 -3T426 -20Q395 -20 370 -1T336 46L53 978Q50 993 50 1013Z" />
<glyph unicode="x" glyph-name="x" horiz-adv-x="1133" d="M978 1092Q1020 1092 1049 1062T1079 991Q1079 952 1051 922L703 547L1056 165Q1084 135 1084 96Q1084 55 1055 26T984 -4Q938 -4 909 29L567 400L224 30Q195 -3 150 -3Q109 -3 80 26T50 97Q50 136 78
166L431 547L83 924Q55 954 55 992Q55 1033 84 1062T155 1092Q200 1092 229 1059L567 694L904 1058Q916 1072 937 1082T978 1092Z" />
<glyph unicode="y" glyph-name="y" horiz-adv-x="1065" d="M125 1101Q154 1101 179 1084T216 1042L556 269L847 1035Q858 1062 883 1080T940 1098Q981 1098 1010 1069T1040 998Q1040 977 1032 959L664 -1Q662 -14 657 -24T647 -42L591 -182Q570 -234 541 -292T461
-403Q412 -454 342 -489T194 -524Q152 -524 123 -494T94 -422Q94 -382 121 -353T188 -322Q276 -316 324 -254T406 -106L454 16L34 958Q25 979 25 1001Q25 1042 54 1071T125 1101Z" />
<glyph unicode="z" glyph-name="z" horiz-adv-x="971" d="M851 1075Q883 1072 911 1045T939 981Q939 939 913 910L355 197H860Q897 197 921 163T946 97Q946 65 922 31T860 -3H132Q92 -3 62 25T32 95Q32 135 58 164L615 874L127 869H110Q77 869 51 900T25 961Q25
999 50 1034T125 1069L838 1075H851Z" />
<glyph unicode="{" glyph-name="braceleft" horiz-adv-x="718" d="M427 -227Q427 -278 436 -317T489 -357Q496 -357 503 -357T517 -356Q558 -356 587 -385T617 -456Q617 -505 580 -531T489 -558Q398 -558 335 -504T248 -383Q233 -342 230 -305T227 -237V-226L229
186Q229 243 216 275T150 307Q109 307 80 336T50 407Q50 446 77 475T144 507Q187 509 204 540T223 620L229 1084Q230 1163 252 1225T324 1330Q392 1387 476 1387Q532 1387 575 1361T618 1281Q618 1240 589 1211T518 1181Q508 1181 498 1183T477 1185Q443 1185 437
1153T429 1081L423 617Q421 493 361 416Q397 373 413 317T429 192V185L427 -227Z" />
<glyph unicode="|" glyph-name="bar" horiz-adv-x="350" d="M275 -295Q275 -329 250 -362T186 -395Q136 -395 106 -369T75 -294V1211Q75 1252 103 1281T174 1311H175Q218 1311 246 1281T275 1210V-295Z" />
<glyph unicode="}" glyph-name="braceright" horiz-adv-x="718" d="M291 1052Q291 1103 282 1142T229 1182Q222 1182 215 1182T201 1181Q160 1181 131 1210T101 1281Q101 1330 138 1356T229 1383Q320 1383 383 1329T470 1208Q485 1167 488 1130T491 1062V1051L489
639Q489 582 502 550T568 518Q609 518 638 489T668 418Q668 379 641 350T574 318Q531 316 514 285T495 205L489 -259Q488 -338 466 -400T394 -505Q326 -562 242 -562Q186 -562 143 -536T100 -456Q100 -415 129 -386T200 -356Q210 -356 220 -358T241 -360Q275 -360
281 -328T289 -256L295 208Q297 332 357 409Q321 452 305 508T289 633V640L291 1052Z" />
<glyph unicode="~" glyph-name="asciitilde" horiz-adv-x="822" d="M623 1309Q623 1315 622 1321T620 1334Q620 1375 649 1404T720 1434H721Q771 1434 797 1397T823 1306Q823 1239 789 1183T699 1094T577 1060Q507 1060 459 1086T373 1149T294 1211Q268 1228 251
1228Q229 1228 215 1214T200 1178Q200 1174 200 1170T201 1162Q201 1121 172 1092T101 1062Q55 1062 28 1096T0 1180Q0 1247 34 1303T124 1393T248 1428Q319 1428 367 1401T453 1339T533 1276Q558 1260 574 1260Q595 1260 609 1274T623 1309Z" />
<glyph unicode="&#xa0;" glyph-name="uni00A0" horiz-adv-x="560" />
<glyph unicode="&#xa8;" glyph-name="dieresis" horiz-adv-x="556" d="M429 1110Q378 1110 341 1145T303 1232Q303 1283 340 1318T429 1353Q480 1353 518 1318T556 1232Q556 1181 518 1146T429 1110ZM132 1110Q81 1110 44 1145T6 1232Q6 1283 43 1318T132 1353Q183
1353 221 1318T259 1232Q259 1181 221 1146T132 1110Z" />
<glyph unicode="&#xa9;" glyph-name="copyright" horiz-adv-x="1694" d="M845 1451Q1013 1451 1154 1392T1400 1229T1562 991T1619 705Q1619 554 1563 422T1403 188T1158 30T846 -27Q672 -27 530 30T287 189T130 424T75 711Q75 860 132 993T294 1229T538 1392T845
1451ZM849 1248Q687 1248 562 1171T366 968T295 691Q295 589 338 496T457 331T632 217T845 175Q958 175 1059 218T1237 334T1359 498T1403 686Q1403 841 1329 968T1129 1172T849 1248ZM462 717Q462 798 493 871T581 1000T714 1090T878 1123Q967 1123 1038 1092T1161
1011T1239 900Q1244 888 1244 872Q1244 843 1221 822T1164 800Q1142 800 1121 813T1090 847Q1067 899 1012 938T878 977Q806 977 748 941T656 845T622 717Q622 648 656 588T751 490T886 452Q960 452 1013 485T1095 565Q1104 581 1125 592T1166 603Q1199 603 1222
582T1246 530Q1246 512 1236 495Q1190 418 1100 362T886 306Q795 306 718 339T584 429T494 561T462 717Z" />
<glyph unicode="&#xab;" glyph-name="guillemotleft" horiz-adv-x="1089" d="M435 924Q462 950 499 950Q537 950 563 924T589 860Q589 822 561 795L319 559L547 340Q575 313 575 274Q575 237 549 211T485 184Q448 184 421 210L127 494Q100 520 100 559Q100 597
127 624L435 924ZM835 924Q862 950 899 950Q937 950 963 924T989 860Q989 822 961 795L719 559L947 340Q975 313 975 274Q975 237 949 211T885 184Q848 184 821 210L527 494Q500 520 500 559Q500 597 527 624L835 924Z" />
<glyph unicode="&#xad;" glyph-name="uni00AD" horiz-adv-x="0" />
<glyph unicode="&#xae;" glyph-name="registered" horiz-adv-x="1694" d="M845 1451Q1013 1451 1154 1392T1400 1229T1562 991T1619 705Q1619 554 1563 422T1403 188T1158 30T846 -27Q672 -27 530 30T287 189T130 424T75 711Q75 860 132 993T294 1229T538 1392T845
1451ZM849 1248Q687 1248 562 1171T366 968T295 691Q295 589 338 496T457 331T632 217T845 175Q958 175 1059 218T1237 334T1359 498T1403 686Q1403 841 1329 968T1129 1172T849 1248ZM1149 411Q1149 392 1135 378T1104 363Q1090 363 1080 373T1065 388Q1019 420
986 460T929 549Q909 592 888 616T836 650T758 661H713V419V418Q713 398 699 383T663 368Q643 368 628 384T613 422L612 1043Q612 1064 626 1078T661 1093H794H806Q892 1093 959 1068T1066 993T1105 868Q1105 820 1085 783T1033 719T964 678Q981 657 998 625Q1027
570 1054 527T1127 452Q1136 446 1142 435T1149 411ZM808 993H712L713 754L809 755Q901 756 953 783T1006 870Q1006 931 951 962T808 993Z" />
<glyph unicode="&#xaf;" glyph-name="overscore" horiz-adv-x="894" d="M184 1406H947Q988 1406 1017 1377T1047 1306Q1047 1265 1018 1236T947 1206H184Q143 1206 114 1235T84 1306Q84 1347 113 1376T184 1406Z" />
<glyph unicode="&#xb0;" glyph-name="degree" horiz-adv-x="647" d="M327 1676Q396 1676 451 1642T539 1551T572 1426Q572 1357 539 1300T450 1209T323 1175Q257 1175 200 1207T109 1293T75 1414Q75 1487 106 1547T194 1641T327 1676ZM441 1427Q441 1472 407 1507T325
1543Q276 1543 241 1507T206 1424Q206 1378 241 1343T323 1308Q374 1308 407 1343T441 1427Z" />
<glyph unicode="&#xb2;" glyph-name="uni00B2" horiz-adv-x="586" d="M100 1074Q80 1074 65 1088T50 1124Q50 1149 65 1176T104 1229T150 1276T190 1312Q222 1340 258 1363T327 1413T381 1473T402 1554Q402 1590 386 1619T341 1665T278 1683Q234 1683 203 1656T164
1593Q161 1577 147 1565T115 1553Q94 1553 80 1567T65 1602Q65 1639 83 1671T132 1729T201 1768T279 1783Q344 1783 394 1753T473 1671T502 1556Q502 1490 477 1443T412 1360T332 1296T257 1239Q221 1207 194 1174H486Q507 1174 521 1159T536 1124Q536 1103 522
1089T486 1074H100Z" />
<glyph unicode="&#xb3;" glyph-name="uni00B3" horiz-adv-x="545" d="M380 1568Q380 1606 349 1634T275 1662Q241 1662 213 1644T177 1604Q170 1585 158 1574T122 1563Q106 1563 92 1577T77 1608Q77 1615 78 1620T80 1629Q101 1683 151 1722T275 1761Q330 1761
377 1736T452 1666T480 1564Q480 1521 462 1487T420 1429Q455 1405 475 1368T496 1283Q496 1219 464 1170T378 1093T263 1065Q196 1065 144 1097T60 1171Q51 1184 51 1200Q51 1221 67 1233T103 1246Q127 1246 142 1226Q159 1203 190 1184T260 1165Q297 1165 327
1180T377 1222T396 1281Q396 1331 362 1350T265 1369Q246 1369 232 1383T217 1419Q217 1446 235 1459T274 1472Q320 1472 350 1495T380 1568Z" />
<glyph unicode="&#xb4;" glyph-name="acute" horiz-adv-x="512" d="M402 1436Q448 1436 475 1404T502 1334Q502 1295 474 1266L150 966Q110 923 74 923Q49 923 27 945T5 991Q5 1026 45 1066L329 1404Q358 1436 402 1436Z" />
<glyph unicode="&#xb6;" glyph-name="paragraph" horiz-adv-x="1317" d="M954 72Q954 30 925 1T854 -28Q813 -28 784 1T754 72L753 1232H478V923L479 82Q479 41 450 12T379 -18Q337 -18 308 11T279 82L278 827Q198 856 145 936T91 1123Q91 1202 134 1273T241 1388T369
1433L1108 1432Q1150 1432 1179 1403T1208 1332Q1208 1291 1179 1262T1108 1232H953L954 72Z" />
<glyph unicode="&#xb8;" glyph-name="cedilla" horiz-adv-x="702" d="M329 -565Q397 -565 450 -524T504 -417Q504 -350 452 -311T339 -272Q284 -272 239 -305Q212 -325 179 -325Q138 -325 109 -296T79 -225Q79 -196 96 -170L258 77Q270 96 294 110T342 124Q383
124 412 95T442 24Q442 -6 425 -32L397 -75Q479 -87 548 -132T660 -249T703 -414Q703 -513 653 -592T519 -718T332 -765Q230 -765 155 -726T27 -625Q2 -596 2 -559Q2 -518 31 -489T102 -459Q147 -459 178 -495Q202 -523 241 -544T329 -565Z" />
<glyph unicode="&#xb9;" glyph-name="uni00B9" horiz-adv-x="411" d="M96 1564Q79 1564 66 1579T52 1610Q52 1626 61 1642T88 1662Q107 1666 127 1684T167 1738Q182 1766 208 1766Q230 1766 246 1753T262 1718V1165H321Q339 1165 350 1149T362 1118Q362 1098 348
1084T314 1070H98Q79 1070 65 1084T51 1118Q51 1133 62 1149T91 1165H162V1585Q148 1577 133 1571T96 1564Z" />
<glyph unicode="&#xbb;" glyph-name="guillemotright" horiz-adv-x="1089" d="M654 181Q627 155 590 155Q552 155 526 181T500 245Q500 283 528 310L770 546L542 765Q514 792 514 831Q514 868 540 894T604 921Q641 921 668 895L962 611Q989 585 989 546Q989 508
962 481L654 181ZM254 181Q227 155 190 155Q152 155 126 181T100 245Q100 283 128 310L370 546L142 765Q114 792 114 831Q114 868 140 894T204 921Q241 921 268 895L562 611Q589 585 589 546Q589 508 562 481L254 181Z" />
<glyph unicode="&#xbf;" glyph-name="questiondown" horiz-adv-x="997" d="M960 74Q960 -33 907 -112T767 -236T577 -280Q433 -280 327 -210T180 -26Q161 27 161 83Q161 179 201 250T296 372T397 464Q440 501 467 532T495 619Q495 629 492 642T489 673Q489 710
515 735T579 761Q621 761 641 737T668 679T675 618Q675 531 639 469T551 359T450 272T374 189Q359 164 350 140T341 83Q341 -3 409 -51T575 -100Q662 -100 721 -54T780 75Q780 79 780 85T779 99Q779 136 805 161T869 186Q920 186 940 150T960 74ZM561 811Q511 811
476 846T440 932Q440 982 475 1017T561 1053Q611 1053 646 1018T682 932Q682 882 647 847T561 811Z" />
<glyph unicode="&#xc0;" glyph-name="Agrave" horiz-adv-x="1400" d="M276 1930Q276 1976 308 2003T377 2030Q415 2030 446 2001L746 1678Q789 1638 789 1602Q789 1577 767 1555T721 1533Q686 1533 646 1573L308 1857Q276 1886 276 1930ZM608 1395Q619 1420 645
1437T700 1455Q727 1455 754 1438T792 1395L1342 119Q1351 99 1351 78Q1351 37 1322 8T1251 -22Q1223 -22 1196 -4T1158 39L987 436L417 444L242 38Q232 13 205 -5T150 -24Q109 -24 80 5T50 76Q50 97 59 117L608 1395ZM700 1102L503 643L900 638L700 1102Z" />
<glyph unicode="&#xc1;" glyph-name="Aacute" horiz-adv-x="1400" d="M1049 2028Q1095 2028 1122 1996T1149 1926Q1149 1887 1121 1858L797 1558Q757 1515 721 1515Q696 1515 674 1537T652 1583Q652 1618 692 1658L976 1996Q1005 2028 1049 2028ZM608 1395Q619
1420 645 1437T700 1455Q727 1455 754 1438T792 1395L1342 119Q1351 99 1351 78Q1351 37 1322 8T1251 -22Q1223 -22 1196 -4T1158 39L987 436L417 444L242 38Q232 13 205 -5T150 -24Q109 -24 80 5T50 76Q50 97 59 117L608 1395ZM700 1102L503 643L900 638L700 1102Z"
/>
<glyph unicode="&#xc2;" glyph-name="Acircumflex" horiz-adv-x="1400" d="M643 2005Q655 2017 675 2026T714 2035Q753 2035 783 2007L1100 1704Q1114 1692 1123 1670T1132 1630Q1132 1589 1103 1560T1032 1530Q991 1530 962 1559L716 1795L482 1558Q453 1527
410 1527Q369 1527 340 1556T310 1627Q310 1668 340 1698L643 2005ZM608 1395Q619 1420 645 1437T700 1455Q727 1455 754 1438T792 1395L1342 119Q1351 99 1351 78Q1351 37 1322 8T1251 -22Q1223 -22 1196 -4T1158 39L987 436L417 444L242 38Q232 13 205 -5T150
-24Q109 -24 80 5T50 76Q50 97 59 117L608 1395ZM700 1102L503 643L900 638L700 1102Z" />
<glyph unicode="&#xc3;" glyph-name="Atilde" horiz-adv-x="1400" d="M933 1806Q933 1812 932 1818T930 1831Q930 1872 959 1901T1030 1931H1031Q1081 1931 1107 1894T1133 1803Q1133 1736 1099 1680T1009 1591T887 1557Q817 1557 769 1583T683 1646T604 1708Q578
1725 561 1725Q539 1725 525 1711T510 1675Q510 1671 510 1667T511 1659Q511 1618 482 1589T411 1559Q365 1559 338 1593T310 1677Q310 1744 344 1800T434 1890T558 1925Q629 1925 677 1898T763 1836T843 1773Q868 1757 884 1757Q905 1757 919 1771T933 1806ZM608
1395Q619 1420 645 1437T700 1455Q727 1455 754 1438T792 1395L1342 119Q1351 99 1351 78Q1351 37 1322 8T1251 -22Q1223 -22 1196 -4T1158 39L987 436L417 444L242 38Q232 13 205 -5T150 -24Q109 -24 80 5T50 76Q50 97 59 117L608 1395ZM700 1102L503 643L900
638L700 1102Z" />
<glyph unicode="&#xc4;" glyph-name="Adieresis" horiz-adv-x="1400" d="M869 1557Q818 1557 781 1592T743 1679Q743 1730 780 1765T869 1800Q920 1800 958 1765T996 1679Q996 1628 958 1593T869 1557ZM572 1557Q521 1557 484 1592T446 1679Q446 1730 483 1765T572
1800Q623 1800 661 1765T699 1679Q699 1628 661 1593T572 1557ZM608 1395Q619 1420 645 1437T700 1455Q727 1455 754 1438T792 1395L1342 119Q1351 99 1351 78Q1351 37 1322 8T1251 -22Q1223 -22 1196 -4T1158 39L987 436L417 444L242 38Q232 13 205 -5T150 -24Q109
-24 80 5T50 76Q50 97 59 117L608 1395ZM700 1102L503 643L900 638L700 1102Z" />
<glyph unicode="&#xc5;" glyph-name="Aring" horiz-adv-x="1401" d="M608 1395Q619 1420 645 1437T700 1455Q727 1455 754 1438T792 1395L1342 119Q1351 99 1351 78Q1351 37 1322 8T1251 -22Q1223 -22 1196 -4T1158 39L987 436L417 444L242 38Q232 13 205 -5T150
-24Q109 -24 80 5T50 76Q50 97 59 117L608 1395ZM700 1102L503 643L900 638L700 1102ZM717 2070Q786 2070 841 2036T929 1945T962 1820Q962 1751 929 1694T840 1603T713 1569Q647 1569 590 1601T499 1687T465 1808Q465 1881 496 1941T584 2035T717 2070ZM831 1821Q831
1866 797 1901T715 1937Q666 1937 631 1901T596 1818Q596 1772 631 1737T713 1702Q764 1702 797 1737T831 1821Z" />
<glyph unicode="&#xc6;" glyph-name="AE" horiz-adv-x="2054" d="M700 1449Q995 1449 1290 1449T1879 1447Q1920 1447 1949 1418T1979 1347Q1979 1306 1950 1277T1879 1247H1877L1040 1248L1041 815L1795 810H1796Q1837 810 1866 781T1896 710Q1896 669 1867 640T1796
610H1794L1042 615L1043 200L1877 201H1879Q1920 201 1949 172T1979 101Q1979 60 1950 31T1879 1H1877L943 0Q902 0 873 29T843 100L842 475Q794 476 745 477T633 479T476 481H431L242 47Q231 22 205 4T150 -14Q109 -14 80 15T50 86Q50 106 59 127L608 1389Q619
1414 646 1431T700 1449ZM766 1249L518 681Q634 680 705 679T842 675L840 1249H766Z" />
<glyph unicode="&#xc7;" glyph-name="Ccedilla" horiz-adv-x="1430" d="M744 -575Q812 -575 865 -534T919 -427Q919 -360 867 -321T754 -282Q699 -282 654 -315Q627 -335 594 -335Q553 -335 524 -306T494 -235Q494 -206 511 -180L673 67Q685 86 709 100T757 114Q798
114 827 85T857 14Q857 -16 840 -42L812 -85Q894 -97 963 -142T1075 -259T1118 -424Q1118 -523 1068 -602T934 -728T747 -775Q645 -775 570 -736T442 -635Q417 -606 417 -569Q417 -528 446 -499T517 -469Q562 -469 593 -505Q617 -533 656 -554T744 -575ZM1286 772Q1322
772 1351 744T1381 680Q1381 652 1371 632Q1321 522 1230 428T1012 276T729 219Q574 219 449 278T236 439T100 675T52 958Q52 1105 100 1238T237 1473T450 1635T726 1694Q880 1694 1005 1640T1223 1495T1368 1296Q1379 1275 1379 1252Q1379 1215 1353 1185T1291
1154Q1257 1154 1230 1168T1188 1212Q1132 1328 1013 1411T726 1494Q581 1494 475 1420T310 1224T252 956Q252 810 309 688T473 493T727 420Q837 420 928 460T1087 568T1189 712Q1216 772 1286 772Z" />
<glyph unicode="&#xc8;" glyph-name="Egrave" horiz-adv-x="1183" d="M185 1912Q185 1958 217 1985T286 2012Q324 2012 355 1983L655 1660Q698 1620 698 1584Q698 1559 676 1537T630 1515Q595 1515 555 1555L217 1839Q185 1868 185 1912ZM75 1336Q75 1376 104
1404T175 1433L1032 1432H1033Q1074 1432 1103 1403T1133 1332Q1133 1291 1104 1262T1033 1232H1032L275 1233L276 823L950 818Q993 818 1021 788T1050 711Q1050 671 1019 644T950 616H949L277 621L278 198L1032 199H1033Q1074 199 1103 170T1133 99Q1133 58 1104
29T1033 -1H1032L178 -2Q137 -2 108 27T78 97L75 1336Z" />
<glyph unicode="&#xc9;" glyph-name="Eacute" horiz-adv-x="1183" d="M891 1995Q937 1995 964 1963T991 1893Q991 1854 963 1825L639 1525Q599 1482 563 1482Q538 1482 516 1504T494 1550Q494 1585 534 1625L818 1963Q847 1995 891 1995ZM75 1336Q75 1376 104
1404T175 1433L1032 1432H1033Q1074 1432 1103 1403T1133 1332Q1133 1291 1104 1262T1033 1232H1032L275 1233L276 823L950 818Q993 818 1021 788T1050 711Q1050 671 1019 644T950 616H949L277 621L278 198L1032 199H1033Q1074 199 1103 170T1133 99Q1133 58 1104
29T1033 -1H1032L178 -2Q137 -2 108 27T78 97L75 1336Z" />
<glyph unicode="&#xca;" glyph-name="Ecircumflex" horiz-adv-x="1183" d="M532 1998Q544 2010 564 2019T603 2028Q642 2028 672 2000L989 1697Q1003 1685 1012 1663T1021 1623Q1021 1582 992 1553T921 1523Q880 1523 851 1552L605 1788L371 1551Q342 1520 299
1520Q258 1520 229 1549T199 1620Q199 1661 229 1691L532 1998ZM75 1336Q75 1376 104 1404T175 1433L1032 1432H1033Q1074 1432 1103 1403T1133 1332Q1133 1291 1104 1262T1033 1232H1032L275 1233L276 823L950 818Q993 818 1021 788T1050 711Q1050 671 1019 644T950
616H949L277 621L278 198L1032 199H1033Q1074 199 1103 170T1133 99Q1133 58 1104 29T1033 -1H1032L178 -2Q137 -2 108 27T78 97L75 1336Z" />
<glyph unicode="&#xcb;" glyph-name="Edieresis" horiz-adv-x="1183" d="M746 1561Q695 1561 658 1596T620 1683Q620 1734 657 1769T746 1804Q797 1804 835 1769T873 1683Q873 1632 835 1597T746 1561ZM449 1561Q398 1561 361 1596T323 1683Q323 1734 360 1769T449
1804Q500 1804 538 1769T576 1683Q576 1632 538 1597T449 1561ZM75 1336Q75 1376 104 1404T175 1433L1032 1432H1033Q1074 1432 1103 1403T1133 1332Q1133 1291 1104 1262T1033 1232H1032L275 1233L276 823L950 818Q993 818 1021 788T1050 711Q1050 671 1019 644T950
616H949L277 621L278 198L1032 199H1033Q1074 199 1103 170T1133 99Q1133 58 1104 29T1033 -1H1032L178 -2Q137 -2 108 27T78 97L75 1336Z" />
<glyph unicode="&#xcc;" glyph-name="Igrave" horiz-adv-x="401" d="M-250 1920Q-250 1966 -218 1993T-149 2020Q-111 2020 -80 1991L220 1668Q263 1628 263 1592Q263 1567 241 1545T195 1523Q160 1523 120 1563L-218 1847Q-250 1876 -250 1920ZM201 -10Q160 -10
131 19T101 90L100 1341Q100 1379 128 1410T195 1441Q241 1441 270 1413T300 1341L301 90Q301 49 272 20T201 -10Z" />
<glyph unicode="&#xcd;" glyph-name="Iacute" horiz-adv-x="401" d="M523 2013Q569 2013 596 1981T623 1911Q623 1872 595 1843L271 1543Q231 1500 195 1500Q170 1500 148 1522T126 1568Q126 1603 166 1643L450 1981Q479 2013 523 2013ZM201 -10Q160 -10 131 19T101
90L100 1341Q100 1379 128 1410T195 1441Q241 1441 270 1413T300 1341L301 90Q301 49 272 20T201 -10Z" />
<glyph unicode="&#xce;" glyph-name="Icircumflex" horiz-adv-x="401" d="M116 1962Q128 1974 148 1983T187 1992Q226 1992 256 1964L573 1661Q587 1649 596 1627T605 1587Q605 1546 576 1517T505 1487Q464 1487 435 1516L189 1752L-45 1515Q-74 1484 -117 1484Q-158
1484 -187 1513T-217 1584Q-217 1625 -187 1655L116 1962ZM201 -10Q160 -10 131 19T101 90L100 1341Q100 1379 128 1410T195 1441Q241 1441 270 1413T300 1341L301 90Q301 49 272 20T201 -10Z" />
<glyph unicode="&#xcf;" glyph-name="Idieresis" horiz-adv-x="401" d="M343 1563Q292 1563 255 1598T217 1685Q217 1736 254 1771T343 1806Q394 1806 432 1771T470 1685Q470 1634 432 1599T343 1563ZM46 1563Q-5 1563 -42 1598T-80 1685Q-80 1736 -43 1771T46
1806Q97 1806 135 1771T173 1685Q173 1634 135 1599T46 1563ZM201 -10Q160 -10 131 19T101 90L100 1341Q100 1379 128 1410T195 1441Q241 1441 270 1413T300 1341L301 90Q301 49 272 20T201 -10Z" />
<glyph unicode="&#xd0;" glyph-name="Eth" horiz-adv-x="1674" d="M872 1437H887Q1063 1437 1196 1376T1418 1210T1553 976T1599 711Q1599 505 1507 344T1234 91T789 -1H742L514 1Q474 2 445 32T415 104L422 1331Q422 1371 451 1400T520 1431L872 1437ZM1421 717Q1421
903 1342 1017T1120 1183T784 1236Q743 1236 703 1235T621 1232L615 203L744 201Q945 201 1097 249T1335 411T1421 717ZM175 869H938Q979 869 1008 840T1038 769Q1038 728 1009 699T938 669H175Q134 669 105 698T75 769Q75 810 104 839T175 869Z" />
<glyph unicode="&#xd1;" glyph-name="Ntilde" horiz-adv-x="1285" d="M846 1778Q846 1784 845 1790T843 1803Q843 1844 872 1873T943 1903H944Q994 1903 1020 1866T1046 1775Q1046 1708 1012 1652T922 1563T800 1529Q730 1529 682 1555T596 1618T517 1680Q491
1697 474 1697Q452 1697 438 1683T423 1647Q423 1643 423 1639T424 1631Q424 1590 395 1561T324 1531Q278 1531 251 1565T223 1649Q223 1716 257 1772T347 1862T471 1897Q542 1897 590 1870T676 1808T756 1745Q781 1729 797 1729Q818 1729 832 1743T846 1778ZM75
1336Q75 1378 105 1405T178 1433Q225 1433 255 1395L1010 370V1333Q1010 1373 1039 1401T1110 1430Q1151 1430 1180 1402T1210 1333L1209 79Q1209 37 1179 10T1106 -18Q1059 -18 1029 22L275 1046V80Q275 40 246 12T175 -17Q134 -17 105 11T75 80V1336Z" />
<glyph unicode="&#xd2;" glyph-name="Ograve" horiz-adv-x="1503" d="M305 1918Q305 1964 337 1991T406 2018Q444 2018 475 1989L775 1666Q818 1626 818 1590Q818 1565 796 1543T750 1521Q715 1521 675 1561L337 1845Q305 1874 305 1918ZM750 1451Q903 1451 1031
1392T1255 1229T1402 991T1454 705Q1454 554 1403 422T1257 188T1035 30T751 -27Q593 -27 464 30T243 189T100 424T50 711Q50 860 102 993T249 1229T471 1392T750 1451ZM754 1248Q606 1248 493 1171T315 968T250 691Q250 589 289 496T397 331T556 217T750 175Q853
175 944 218T1106 334T1217 498T1257 686Q1257 841 1190 968T1008 1172T754 1248Z" />
<glyph unicode="&#xd3;" glyph-name="Oacute" horiz-adv-x="1503" d="M1061 2011Q1107 2011 1134 1979T1161 1909Q1161 1870 1133 1841L809 1541Q769 1498 733 1498Q708 1498 686 1520T664 1566Q664 1601 704 1641L988 1979Q1017 2011 1061 2011ZM750 1451Q903
1451 1031 1392T1255 1229T1402 991T1454 705Q1454 554 1403 422T1257 188T1035 30T751 -27Q593 -27 464 30T243 189T100 424T50 711Q50 860 102 993T249 1229T471 1392T750 1451ZM754 1248Q606 1248 493 1171T315 968T250 691Q250 589 289 496T397 331T556 217T750
175Q853 175 944 218T1106 334T1217 498T1257 686Q1257 841 1190 968T1008 1172T754 1248Z" />
<glyph unicode="&#xd4;" glyph-name="Ocircumflex" horiz-adv-x="1503" d="M672 2002Q684 2014 704 2023T743 2032Q782 2032 812 2004L1129 1701Q1143 1689 1152 1667T1161 1627Q1161 1586 1132 1557T1061 1527Q1020 1527 991 1556L745 1792L511 1555Q482 1524
439 1524Q398 1524 369 1553T339 1624Q339 1665 369 1695L672 2002ZM750 1451Q903 1451 1031 1392T1255 1229T1402 991T1454 705Q1454 554 1403 422T1257 188T1035 30T751 -27Q593 -27 464 30T243 189T100 424T50 711Q50 860 102 993T249 1229T471 1392T750 1451ZM754
1248Q606 1248 493 1171T315 968T250 691Q250 589 289 496T397 331T556 217T750 175Q853 175 944 218T1106 334T1217 498T1257 686Q1257 841 1190 968T1008 1172T754 1248Z" />
<glyph unicode="&#xd5;" glyph-name="Otilde" horiz-adv-x="1503" d="M962 1794Q962 1800 961 1806T959 1819Q959 1860 988 1889T1059 1919H1060Q1110 1919 1136 1882T1162 1791Q1162 1724 1128 1668T1038 1579T916 1545Q846 1545 798 1571T712 1634T633 1696Q607
1713 590 1713Q568 1713 554 1699T539 1663Q539 1659 539 1655T540 1647Q540 1606 511 1577T440 1547Q394 1547 367 1581T339 1665Q339 1732 373 1788T463 1878T587 1913Q658 1913 706 1886T792 1824T872 1761Q897 1745 913 1745Q934 1745 948 1759T962 1794ZM750
1451Q903 1451 1031 1392T1255 1229T1402 991T1454 705Q1454 554 1403 422T1257 188T1035 30T751 -27Q593 -27 464 30T243 189T100 424T50 711Q50 860 102 993T249 1229T471 1392T750 1451ZM754 1248Q606 1248 493 1171T315 968T250 691Q250 589 289 496T397 331T556
217T750 175Q853 175 944 218T1106 334T1217 498T1257 686Q1257 841 1190 968T1008 1172T754 1248Z" />
<glyph unicode="&#xd6;" glyph-name="Odieresis" horiz-adv-x="1503" d="M898 1545Q847 1545 810 1580T772 1667Q772 1718 809 1753T898 1788Q949 1788 987 1753T1025 1667Q1025 1616 987 1581T898 1545ZM601 1545Q550 1545 513 1580T475 1667Q475 1718 512 1753T601
1788Q652 1788 690 1753T728 1667Q728 1616 690 1581T601 1545ZM750 1451Q903 1451 1031 1392T1255 1229T1402 991T1454 705Q1454 554 1403 422T1257 188T1035 30T751 -27Q593 -27 464 30T243 189T100 424T50 711Q50 860 102 993T249 1229T471 1392T750 1451ZM754
1248Q606 1248 493 1171T315 968T250 691Q250 589 289 496T397 331T556 217T750 175Q853 175 944 218T1106 334T1217 498T1257 686Q1257 841 1190 968T1008 1172T754 1248Z" />
<glyph unicode="&#xd7;" glyph-name="multiply" horiz-adv-x="940" d="M807 879L808 877Q837 848 837 807T808 736L807 735L611 533L811 333Q840 304 840 262T811 191Q782 162 740 162T669 191L471 390L273 188L271 186Q242 157 200 157T129 186Q100 215 100 256T129
327L329 531L130 731Q101 760 101 801T130 872Q159 901 200 901T271 872L469 674L664 875L667 877Q696 906 737 906T807 879Z" />
<glyph unicode="&#xd8;" glyph-name="Oslash" horiz-adv-x="1663" d="M1368 1469Q1400 1469 1414 1447T1429 1394Q1429 1322 1372 1241L1338 1193Q1446 1086 1504 949T1563 667Q1563 567 1533 469T1440 280Q1338 133 1188 61T874 -12Q704 -12 546 62L517 21Q481
-31 437 -61T357 -92Q326 -92 312 -71T297 -18Q297 54 353 135L377 168Q244 277 172 424T100 729Q100 830 131 931T229 1127Q334 1278 481 1351T787 1425Q991 1425 1179 1314L1208 1356Q1245 1408 1289 1438T1368 1469ZM395 1012Q352 950 332 879T311 735Q311 619
358 511T489 330L1065 1151Q946 1218 806 1218Q687 1218 577 1166T395 1012ZM1272 393Q1317 457 1338 526T1359 666Q1359 762 1323 854T1219 1023L664 230Q765 192 869 192Q988 192 1095 243T1272 393Z" />
<glyph unicode="&#xd9;" glyph-name="Ugrave" horiz-adv-x="1326" d="M240 1896Q240 1942 272 1969T341 1996Q379 1996 410 1967L710 1644Q753 1604 753 1568Q753 1543 731 1521T685 1499Q650 1499 610 1539L272 1823Q240 1852 240 1896ZM75 1336Q75 1374 103
1404T170 1434Q217 1434 245 1409T275 1336L282 613Q284 397 369 272T651 147Q797 147 885 204T1012 363T1051 598L1049 1337V1338Q1049 1379 1078 1407T1148 1436Q1189 1436 1219 1408T1249 1338V1337L1251 598Q1251 298 1103 123T655 -52Q462 -52 336 33T147
268T82 610L75 1335V1336Z" />
<glyph unicode="&#xda;" glyph-name="Uacute" horiz-adv-x="1326" d="M923 1999Q969 1999 996 1967T1023 1897Q1023 1858 995 1829L671 1529Q631 1486 595 1486Q570 1486 548 1508T526 1554Q526 1589 566 1629L850 1967Q879 1999 923 1999ZM75 1336Q75 1374 103
1404T170 1434Q217 1434 245 1409T275 1336L282 613Q284 397 369 272T651 147Q797 147 885 204T1012 363T1051 598L1049 1337V1338Q1049 1379 1078 1407T1148 1436Q1189 1436 1219 1408T1249 1338V1337L1251 598Q1251 298 1103 123T655 -52Q462 -52 336 33T147
268T82 610L75 1335V1336Z" />
<glyph unicode="&#xdb;" glyph-name="Ucircumflex" horiz-adv-x="1326" d="M604 1988Q616 2000 636 2009T675 2018Q714 2018 744 1990L1061 1687Q1075 1675 1084 1653T1093 1613Q1093 1572 1064 1543T993 1513Q952 1513 923 1542L677 1778L443 1541Q414 1510 371
1510Q330 1510 301 1539T271 1610Q271 1651 301 1681L604 1988ZM75 1336Q75 1374 103 1404T170 1434Q217 1434 245 1409T275 1336L282 613Q284 397 369 272T651 147Q797 147 885 204T1012 363T1051 598L1049 1337V1338Q1049 1379 1078 1407T1148 1436Q1189 1436
1219 1408T1249 1338V1337L1251 598Q1251 298 1103 123T655 -52Q462 -52 336 33T147 268T82 610L75 1335V1336Z" />
<glyph unicode="&#xdc;" glyph-name="Udieresis" horiz-adv-x="1326" d="M761 1560Q710 1560 673 1595T635 1682Q635 1733 672 1768T761 1803Q812 1803 850 1768T888 1682Q888 1631 850 1596T761 1560ZM464 1560Q413 1560 376 1595T338 1682Q338 1733 375 1768T464
1803Q515 1803 553 1768T591 1682Q591 1631 553 1596T464 1560ZM75 1336Q75 1374 103 1404T170 1434Q217 1434 245 1409T275 1336L282 613Q284 397 369 272T651 147Q797 147 885 204T1012 363T1051 598L1049 1337V1338Q1049 1379 1078 1407T1148 1436Q1189 1436
1219 1408T1249 1338V1337L1251 598Q1251 298 1103 123T655 -52Q462 -52 336 33T147 268T82 610L75 1335V1336Z" />
<glyph unicode="&#xdd;" glyph-name="Yacute" horiz-adv-x="1129" d="M877 1993Q923 1993 950 1961T977 1891Q977 1852 949 1823L625 1523Q585 1480 549 1480Q524 1480 502 1502T480 1548Q480 1583 520 1623L804 1961Q833 1993 877 1993ZM25 1363Q25 1404 58 1430T131
1456Q183 1456 211 1408L568 793L917 1402Q927 1418 949 1433T996 1448Q1019 1448 1037 1444T1076 1418Q1104 1388 1104 1355Q1104 1323 1089 1298L664 576L657 78Q657 38 628 10T557 -19Q516 -19 487 9T457 78V80L464 589L41 1306Q25 1329 25 1363Z" />
<glyph unicode="&#xde;" glyph-name="Thorn" horiz-adv-x="1322" d="M201 -10Q160 -10 131 19T101 90L100 1341Q100 1379 128 1410T195 1441Q241 1441 270 1413T300 1341V1179L735 1180Q960 1181 1091 1069T1222 733Q1222 589 1158 494T982 352T726 303L301 299V90Q301
49 272 20T201 -10ZM735 1030L300 1029L301 449L724 453Q886 455 979 518T1073 730Q1073 894 979 962T735 1030Z" />
<glyph unicode="&#xdf;" glyph-name="germandbls" horiz-adv-x="1323" d="M885 1422Q950 1403 1016 1365T1126 1266T1170 1116Q1170 1032 1126 971T1033 872Q972 826 916 802T811 746Q813 745 825 741Q889 718 952 703T1074 664T1181 589Q1226 543 1247 485T1268
366Q1268 241 1192 141Q1124 52 1016 2T762 -49Q622 -49 496 2Q472 11 456 35T439 86Q439 123 465 149T529 176Q548 176 564 169Q659 130 765 130Q865 130 942 166Q996 190 1042 241T1089 363Q1089 423 1059 457T982 509T879 540T773 567T686 613Q661 632 641 667T620
745Q620 771 630 797Q651 854 696 887T796 945T899 996T975 1068Q991 1094 991 1116Q991 1118 991 1120Q991 1142 977 1162T948 1195Q906 1228 828 1250T674 1273Q541 1273 456 1201T342 1022Q323 948 325 850L344 62Q344 62 344 59Q344 21 318 -5T254 -31Q217
-31 191 -5T164 58Q158 304 155 455T149 688T146 802T145 842T145 856Q145 906 149 959T168 1068Q196 1174 265 1261T437 1401T672 1454H679Q732 1454 784 1445T884 1422H885Z" />
<glyph unicode="&#xe0;" glyph-name="agrave" horiz-adv-x="1276" d="M593 1547Q593 1593 625 1620T694 1647Q732 1647 763 1618L1063 1295Q1106 1255 1106 1219Q1106 1194 1084 1172T1038 1150Q1003 1150 963 1190L625 1474Q593 1503 593 1547ZM623 1100Q697
1100 767 1071T893 997T976 905L987 1001Q987 1042 1011 1071T1076 1101Q1117 1101 1146 1072T1176 1001V999L1174 73Q1174 32 1145 3T1074 -27Q1033 -27 1009 2T985 73L974 153Q922 64 822 21T621 -23Q508 -23 409 21T235 144T118 323T75 536Q75 647 116 748T232
929T406 1054T623 1100ZM968 538Q968 636 923 718T799 850T621 900Q523 900 444 850T319 718T273 539Q273 442 320 360T446 227T622 177Q718 177 796 227T921 359T968 538Z" />
<glyph unicode="&#xe1;" glyph-name="aacute" horiz-adv-x="1276" d="M837 1690Q883 1690 910 1658T937 1588Q937 1549 909 1520L585 1220Q545 1177 509 1177Q484 1177 462 1199T440 1245Q440 1280 480 1320L764 1658Q793 1690 837 1690ZM623 1100Q697 1100 767
1071T893 997T976 905L987 1001Q987 1042 1011 1071T1076 1101Q1117 1101 1146 1072T1176 1001V999L1174 73Q1174 32 1145 3T1074 -27Q1033 -27 1009 2T985 73L974 153Q922 64 822 21T621 -23Q508 -23 409 21T235 144T118 323T75 536Q75 647 116 748T232 929T406
1054T623 1100ZM968 538Q968 636 923 718T799 850T621 900Q523 900 444 850T319 718T273 539Q273 442 320 360T446 227T622 177Q718 177 796 227T921 359T968 538Z" />
<glyph unicode="&#xe2;" glyph-name="acircumflex" horiz-adv-x="1276" d="M626 1655Q638 1667 658 1676T697 1685Q736 1685 766 1657L1083 1354Q1097 1342 1106 1320T1115 1280Q1115 1239 1086 1210T1015 1180Q974 1180 945 1209L699 1445L465 1208Q436 1177
393 1177Q352 1177 323 1206T293 1277Q293 1318 323 1348L626 1655ZM623 1100Q697 1100 767 1071T893 997T976 905L987 1001Q987 1042 1011 1071T1076 1101Q1117 1101 1146 1072T1176 1001V999L1174 73Q1174 32 1145 3T1074 -27Q1033 -27 1009 2T985 73L974 153Q922
64 822 21T621 -23Q508 -23 409 21T235 144T118 323T75 536Q75 647 116 748T232 929T406 1054T623 1100ZM968 538Q968 636 923 718T799 850T621 900Q523 900 444 850T319 718T273 539Q273 442 320 360T446 227T622 177Q718 177 796 227T921 359T968 538Z" />
<glyph unicode="&#xe3;" glyph-name="atilde" horiz-adv-x="1276" d="M910 1426Q910 1432 909 1438T907 1451Q907 1492 936 1521T1007 1551H1008Q1058 1551 1084 1514T1110 1423Q1110 1356 1076 1300T986 1211T864 1177Q794 1177 746 1203T660 1266T581 1328Q555
1345 538 1345Q516 1345 502 1331T487 1295Q487 1291 487 1287T488 1279Q488 1238 459 1209T388 1179Q342 1179 315 1213T287 1297Q287 1364 321 1420T411 1510T535 1545Q606 1545 654 1518T740 1456T820 1393Q845 1377 861 1377Q882 1377 896 1391T910 1426ZM623
1100Q697 1100 767 1071T893 997T976 905L987 1001Q987 1042 1011 1071T1076 1101Q1117 1101 1146 1072T1176 1001V999L1174 73Q1174 32 1145 3T1074 -27Q1033 -27 1009 2T985 73L974 153Q922 64 822 21T621 -23Q508 -23 409 21T235 144T118 323T75 536Q75 647
116 748T232 929T406 1054T623 1100ZM968 538Q968 636 923 718T799 850T621 900Q523 900 444 850T319 718T273 539Q273 442 320 360T446 227T622 177Q718 177 796 227T921 359T968 538Z" />
<glyph unicode="&#xe4;" glyph-name="adieresis" horiz-adv-x="1276" d="M837 1186Q786 1186 749 1221T711 1308Q711 1359 748 1394T837 1429Q888 1429 926 1394T964 1308Q964 1257 926 1222T837 1186ZM540 1186Q489 1186 452 1221T414 1308Q414 1359 451 1394T540
1429Q591 1429 629 1394T667 1308Q667 1257 629 1222T540 1186ZM623 1100Q697 1100 767 1071T893 997T976 905L987 1001Q987 1042 1011 1071T1076 1101Q1117 1101 1146 1072T1176 1001V999L1174 73Q1174 32 1145 3T1074 -27Q1033 -27 1009 2T985 73L974 153Q922
64 822 21T621 -23Q508 -23 409 21T235 144T118 323T75 536Q75 647 116 748T232 929T406 1054T623 1100ZM968 538Q968 636 923 718T799 850T621 900Q523 900 444 850T319 718T273 539Q273 442 320 360T446 227T622 177Q718 177 796 227T921 359T968 538Z" />
<glyph unicode="&#xe5;" glyph-name="aring" horiz-adv-x="1251" d="M623 1100Q697 1100 767 1071T893 997T976 905L987 1001Q987 1042 1011 1071T1076 1101Q1117 1101 1146 1072T1176 1001V999L1174 73Q1174 32 1145 3T1074 -27Q1033 -27 1009 2T985 73L974 153Q922
64 822 21T621 -23Q508 -23 409 21T235 144T118 323T75 536Q75 647 116 748T232 929T406 1054T623 1100ZM968 538Q968 636 923 718T799 850T621 900Q523 900 444 850T319 718T273 539Q273 442 320 360T446 227T622 177Q718 177 796 227T921 359T968 538ZM687 1805Q756
1805 811 1771T899 1680T932 1555Q932 1486 899 1429T810 1338T683 1304Q617 1304 560 1336T469 1422T435 1543Q435 1616 466 1676T554 1770T687 1805ZM801 1556Q801 1601 767 1636T685 1672Q636 1672 601 1636T566 1553Q566 1507 601 1472T683 1437Q734 1437 767
1472T801 1556Z" />
<glyph unicode="&#xe6;" glyph-name="ae" horiz-adv-x="2040" d="M1066 1076Q1066 1076 1067 1076Q1109 1076 1138 1046T1167 974V970Q1300 1069 1463 1072Q1477 1072 1490 1072Q1592 1068 1684 1024T1843 903Q1910 826 1941 729T1963 530Q1959 493 1930 467T1863
440L1166 439Q1190 354 1247 292Q1337 194 1468 182Q1547 175 1626 208T1755 303Q1785 341 1834 341Q1875 341 1904 312T1934 241Q1934 204 1910 176Q1827 74 1704 23T1450 -17Q1292 -3 1165 96V67Q1165 26 1136 -3T1065 -33Q1023 -33 994 -3T965 69V116Q890 51
796 17T602 -16Q494 -14 396 30T224 153Q150 230 112 330T75 537Q77 649 122 752T250 931Q400 1069 603 1074Q631 1074 659 1072Q834 1057 967 940Q967 967 967 971T967 976Q967 1017 996 1046T1066 1076ZM617 874Q483 874 386 784Q335 737 306 671T275 534Q274
468 299 403T369 290Q414 242 477 214T606 184Q670 183 733 207T843 276Q944 370 952 509Q960 649 870 755Q824 809 756 841T617 874ZM1245 772Q1193 717 1169 639L1758 640Q1741 716 1693 772Q1654 816 1598 843T1483 872Q1412 872 1350 845T1245 772Z" />
<glyph unicode="&#xe7;" glyph-name="ccedilla" horiz-adv-x="1098" d="M577 -536Q645 -536 698 -495T752 -388Q752 -321 700 -282T587 -243Q532 -243 487 -276Q460 -296 427 -296Q386 -296 357 -267T327 -196Q327 -167 344 -141L506 106Q518 125 542 139T590
153Q631 153 660 124T690 53Q690 23 673 -3L645 -46Q727 -58 796 -103T908 -220T951 -385Q951 -484 901 -563T767 -689T580 -736Q478 -736 403 -697T275 -596Q250 -567 250 -530Q250 -489 279 -460T350 -430Q395 -430 426 -466Q450 -494 489 -515T577 -536ZM60
539Q60 650 99 750T209 928T374 1051T580 1096Q690 1096 779 1054T933 942T1030 790Q1037 773 1037 752Q1037 711 1008 682T937 652Q909 652 882 671T844 717Q816 789 747 842T580 896Q489 896 417 846T302 714T260 539Q260 444 303 361T421 226T590 174Q682 174
749 220T850 329Q862 351 888 366T939 382Q980 382 1009 353T1039 282Q1039 257 1026 233Q969 128 856 51T590 -26Q476 -26 380 19T212 144T100 324T60 539Z" />
<glyph unicode="&#xe8;" glyph-name="egrave" horiz-adv-x="1131" d="M81 1540Q81 1586 113 1613T182 1640Q220 1640 251 1611L551 1288Q594 1248 594 1212Q594 1187 572 1165T526 1143Q491 1143 451 1183L113 1467Q81 1496 81 1540ZM582 1092Q715 1092 826 1026T1004
849T1072 601Q1072 573 1069 544Q1065 507 1036 482T969 456L270 455Q287 383 334 320T448 218T596 179Q682 179 750 221T856 318Q868 337 892 350T939 363Q980 363 1009 333T1039 262Q1039 230 1021 205Q959 114 851 48T599 -19Q484 -19 386 26T214 149T101 328T60
543Q60 652 100 750T211 926T378 1047T582 1092ZM866 656Q847 754 768 823T582 892Q473 892 390 821T277 655L866 656Z" />
<glyph unicode="&#xe9;" glyph-name="eacute" horiz-adv-x="1131" d="M854 1656Q900 1656 927 1624T954 1554Q954 1515 926 1486L602 1186Q562 1143 526 1143Q501 1143 479 1165T457 1211Q457 1246 497 1286L781 1624Q810 1656 854 1656ZM582 1092Q715 1092 826
1026T1004 849T1072 601Q1072 573 1069 544Q1065 507 1036 482T969 456L270 455Q287 383 334 320T448 218T596 179Q682 179 750 221T856 318Q868 337 892 350T939 363Q980 363 1009 333T1039 262Q1039 230 1021 205Q959 114 851 48T599 -19Q484 -19 386 26T214
149T101 328T60 543Q60 652 100 750T211 926T378 1047T582 1092ZM866 656Q847 754 768 823T582 892Q473 892 390 821T277 655L866 656Z" />
<glyph unicode="&#xea;" glyph-name="ecircumflex" horiz-adv-x="1131" d="M447 1621Q459 1633 479 1642T518 1651Q557 1651 587 1623L904 1320Q918 1308 927 1286T936 1246Q936 1205 907 1176T836 1146Q795 1146 766 1175L520 1411L286 1174Q257 1143 214 1143Q173
1143 144 1172T114 1243Q114 1284 144 1314L447 1621ZM582 1092Q715 1092 826 1026T1004 849T1072 601Q1072 573 1069 544Q1065 507 1036 482T969 456L270 455Q287 383 334 320T448 218T596 179Q682 179 750 221T856 318Q868 337 892 350T939 363Q980 363 1009
333T1039 262Q1039 230 1021 205Q959 114 851 48T599 -19Q484 -19 386 26T214 149T101 328T60 543Q60 652 100 750T211 926T378 1047T582 1092ZM866 656Q847 754 768 823T582 892Q473 892 390 821T277 655L866 656Z" />
<glyph unicode="&#xeb;" glyph-name="edieresis" horiz-adv-x="1131" d="M674 1143Q623 1143 586 1178T548 1265Q548 1316 585 1351T674 1386Q725 1386 763 1351T801 1265Q801 1214 763 1179T674 1143ZM377 1143Q326 1143 289 1178T251 1265Q251 1316 288 1351T377
1386Q428 1386 466 1351T504 1265Q504 1214 466 1179T377 1143ZM582 1092Q715 1092 826 1026T1004 849T1072 601Q1072 573 1069 544Q1065 507 1036 482T969 456L270 455Q287 383 334 320T448 218T596 179Q682 179 750 221T856 318Q868 337 892 350T939 363Q980
363 1009 333T1039 262Q1039 230 1021 205Q959 114 851 48T599 -19Q484 -19 386 26T214 149T101 328T60 543Q60 652 100 750T211 926T378 1047T582 1092ZM866 656Q847 754 768 823T582 892Q473 892 390 821T277 655L866 656Z" />
<glyph unicode="&#xec;" glyph-name="igrave" horiz-adv-x="392" d="M-250 1612Q-250 1658 -218 1685T-149 1712Q-111 1712 -80 1683L220 1360Q263 1320 263 1284Q263 1259 241 1237T195 1215Q160 1215 120 1255L-218 1539Q-250 1568 -250 1612ZM95 1007Q95 1045
127 1069T189 1093Q233 1093 264 1067T295 998V997L297 75Q297 35 268 7T197 -21Q155 -21 126 7T97 76L95 1007Z" />
<glyph unicode="&#xed;" glyph-name="iacute" horiz-adv-x="392" d="M523 1728Q569 1728 596 1696T623 1626Q623 1587 595 1558L271 1258Q231 1215 195 1215Q170 1215 148 1237T126 1283Q126 1318 166 1358L450 1696Q479 1728 523 1728ZM95 1007Q95 1045 127 1069T189
1093Q233 1093 264 1067T295 998V997L297 75Q297 35 268 7T197 -21Q155 -21 126 7T97 76L95 1007Z" />
<glyph unicode="&#xee;" glyph-name="icircumflex" horiz-adv-x="392" d="M117 1693Q129 1705 149 1714T188 1723Q227 1723 257 1695L574 1392Q588 1380 597 1358T606 1318Q606 1277 577 1248T506 1218Q465 1218 436 1247L190 1483L-44 1246Q-73 1215 -116 1215Q-157
1215 -186 1244T-216 1315Q-216 1356 -186 1386L117 1693ZM95 1007Q95 1045 127 1069T189 1093Q233 1093 264 1067T295 998V997L297 75Q297 35 268 7T197 -21Q155 -21 126 7T97 76L95 1007Z" />
<glyph unicode="&#xef;" glyph-name="idieresis" horiz-adv-x="392" d="M599 1215Q548 1215 511 1250T473 1337Q473 1388 510 1423T599 1458Q650 1458 688 1423T726 1337Q726 1286 688 1251T599 1215ZM302 1215Q251 1215 214 1250T176 1337Q176 1388 213 1423T302
1458Q353 1458 391 1423T429 1337Q429 1286 391 1251T302 1215ZM95 1007Q95 1045 127 1069T189 1093Q233 1093 264 1067T295 998V997L297 75Q297 35 268 7T197 -21Q155 -21 126 7T97 76L95 1007Z" />
<glyph unicode="&#xf0;" glyph-name="eth" horiz-adv-x="1277" d="M520 1169Q520 1189 529 1207T548 1238Q515 1243 480 1243Q362 1243 265 1192Q245 1181 222 1181Q185 1181 159 1207T132 1271Q132 1294 146 1318T182 1352Q322 1424 479 1424Q570 1424 660 1399L677
1423Q689 1439 710 1451T751 1463Q789 1463 815 1437T841 1373Q841 1346 827 1325Q925 1264 1004 1165T1130 937T1177 661Q1177 481 1113 329T926 84T625 -8Q414 -8 261 140Q181 218 141 319T100 528Q100 631 138 730T254 907Q327 981 424 1021T625 1062Q627 1062
629 1062T632 1062Q709 1061 782 1038T918 971Q884 1035 835 1088T725 1177L684 1119Q672 1103 651 1091T610 1079Q573 1079 547 1105T520 1169ZM625 882Q558 882 494 855T382 780Q331 729 306 663T280 527Q280 456 306 389T386 269Q436 220 498 197T624 173Q694
173 760 200T876 281Q917 326 944 387T972 528Q972 624 926 704T800 833T625 882Z" />
<glyph unicode="&#xf1;" glyph-name="ntilde" horiz-adv-x="1086" d="M747 1396Q747 1402 746 1408T744 1421Q744 1462 773 1491T844 1521H845Q895 1521 921 1484T947 1393Q947 1326 913 1270T823 1181T701 1147Q631 1147 583 1173T497 1236T418 1298Q392 1315
375 1315Q353 1315 339 1301T324 1265Q324 1261 324 1257T325 1249Q325 1208 296 1179T225 1149Q179 1149 152 1183T124 1267Q124 1334 158 1390T248 1480T372 1515Q443 1515 491 1488T577 1426T657 1363Q682 1347 698 1347Q719 1347 733 1361T747 1396ZM295 937Q349
990 424 1042T600 1094Q731 1094 818 1025T946 863Q978 790 984 719T991 584V79Q991 38 962 9T891 -21Q850 -21 821 8T791 79V584Q791 643 786 693T763 781Q744 825 704 859T602 894Q454 894 375 781T296 476L297 77Q297 36 268 7T197 -23Q155 -23 126 6T97 78L95
997Q95 1038 117 1067T181 1097Q222 1097 244 1068T278 997L295 937Z" />
<glyph unicode="&#xf2;" glyph-name="ograve" horiz-adv-x="1196" d="M134 1537Q134 1583 166 1610T235 1637Q273 1637 304 1608L604 1285Q647 1245 647 1209Q647 1184 625 1162T579 1140Q544 1140 504 1180L166 1464Q134 1493 134 1537ZM598 1095Q713 1095 812
1051T987 929T1104 750T1147 535Q1147 423 1104 323T986 146T811 25T598 -19Q486 -19 387 24T212 143T93 319T50 535Q50 649 93 750T211 928T386 1050T598 1095ZM252 533Q252 436 299 357T426 230T599 183Q695 183 773 231T898 360T945 535Q945 632 899 713T775
844T598 893Q499 893 421 844T298 713T252 533Z" />
<glyph unicode="&#xf3;" glyph-name="oacute" horiz-adv-x="1196" d="M907 1653Q953 1653 980 1621T1007 1551Q1007 1512 979 1483L655 1183Q615 1140 579 1140Q554 1140 532 1162T510 1208Q510 1243 550 1283L834 1621Q863 1653 907 1653ZM598 1095Q713 1095
812 1051T987 929T1104 750T1147 535Q1147 423 1104 323T986 146T811 25T598 -19Q486 -19 387 24T212 143T93 319T50 535Q50 649 93 750T211 928T386 1050T598 1095ZM252 533Q252 436 299 357T426 230T599 183Q695 183 773 231T898 360T945 535Q945 632 899 713T775
844T598 893Q499 893 421 844T298 713T252 533Z" />
<glyph unicode="&#xf4;" glyph-name="ocircumflex" horiz-adv-x="1196" d="M501 1618Q513 1630 533 1639T572 1648Q611 1648 641 1620L958 1317Q972 1305 981 1283T990 1243Q990 1202 961 1173T890 1143Q849 1143 820 1172L574 1408L340 1171Q311 1140 268 1140Q227
1140 198 1169T168 1240Q168 1281 198 1311L501 1618ZM598 1095Q713 1095 812 1051T987 929T1104 750T1147 535Q1147 423 1104 323T986 146T811 25T598 -19Q486 -19 387 24T212 143T93 319T50 535Q50 649 93 750T211 928T386 1050T598 1095ZM252 533Q252 436 299
357T426 230T599 183Q695 183 773 231T898 360T945 535Q945 632 899 713T775 844T598 893Q499 893 421 844T298 713T252 533Z" />
<glyph unicode="&#xf5;" glyph-name="otilde" horiz-adv-x="1196" d="M791 1389Q791 1395 790 1401T788 1414Q788 1455 817 1484T888 1514H889Q939 1514 965 1477T991 1386Q991 1319 957 1263T867 1174T745 1140Q675 1140 627 1166T541 1229T462 1291Q436 1308
419 1308Q397 1308 383 1294T368 1258Q368 1254 368 1250T369 1242Q369 1201 340 1172T269 1142Q223 1142 196 1176T168 1260Q168 1327 202 1383T292 1473T416 1508Q487 1508 535 1481T621 1419T701 1356Q726 1340 742 1340Q763 1340 777 1354T791 1389ZM598 1095Q713
1095 812 1051T987 929T1104 750T1147 535Q1147 423 1104 323T986 146T811 25T598 -19Q486 -19 387 24T212 143T93 319T50 535Q50 649 93 750T211 928T386 1050T598 1095ZM252 533Q252 436 299 357T426 230T599 183Q695 183 773 231T898 360T945 535Q945 632 899
713T775 844T598 893Q499 893 421 844T298 713T252 533Z" />
<glyph unicode="&#xf6;" glyph-name="odieresis" horiz-adv-x="1196" d="M727 1140Q676 1140 639 1175T601 1262Q601 1313 638 1348T727 1383Q778 1383 816 1348T854 1262Q854 1211 816 1176T727 1140ZM430 1140Q379 1140 342 1175T304 1262Q304 1313 341 1348T430
1383Q481 1383 519 1348T557 1262Q557 1211 519 1176T430 1140ZM598 1095Q713 1095 812 1051T987 929T1104 750T1147 535Q1147 423 1104 323T986 146T811 25T598 -19Q486 -19 387 24T212 143T93 319T50 535Q50 649 93 750T211 928T386 1050T598 1095ZM252 533Q252
436 299 357T426 230T599 183Q695 183 773 231T898 360T945 535Q945 632 899 713T775 844T598 893Q499 893 421 844T298 713T252 533Z" />
<glyph unicode="&#xf7;" glyph-name="divide" horiz-adv-x="600" d="M200 904H963Q1004 904 1033 875T1063 804Q1063 763 1034 734T963 704H200Q159 704 130 733T100 804Q100 845 129 874T200 904ZM594 114Q543 114 505 150T467 238Q467 290 505 325T594 361Q645
361 683 326T722 238Q722 186 684 150T594 114ZM595 761Q544 761 506 797T468 885Q468 937 506 972T595 1008Q646 1008 684 973T723 885Q723 833 685 797T595 761Z" />
<glyph unicode="&#xf8;" glyph-name="oslash" horiz-adv-x="1305" d="M1110 206Q1032 95 917 37T674 -25T426 25L396 -18Q361 -69 311 -88T228 -84Q194 -60 195 -7T232 97L262 139Q170 232 130 354T104 605T197 845Q274 954 389 1013T633 1076T882 1024L894 1042Q930
1093 979 1112T1063 1109Q1097 1085 1096 1032T1058 927L1045 908Q1135 815 1175 693T1201 443T1110 206ZM362 728Q294 631 301 514T381 309L763 855Q654 893 542 859T362 728ZM944 322Q1013 420 1005 535T926 738L545 195Q653 159 764 191T944 322Z" />
<glyph unicode="&#xf9;" glyph-name="ugrave" horiz-adv-x="1086" d="M90 1544Q90 1590 122 1617T191 1644Q229 1644 260 1615L560 1292Q603 1252 603 1216Q603 1191 581 1169T535 1147Q500 1147 460 1187L122 1471Q90 1500 90 1544ZM792 135Q738 82 663 30T487
-22Q356 -22 269 47T141 209Q109 282 103 353T96 488V993Q96 1034 125 1063T196 1093Q237 1093 266 1064T296 993V488Q296 429 301 379T324 291Q343 247 383 213T485 178Q633 178 712 291T791 596L790 995Q790 1036 819 1065T890 1095Q932 1095 961 1066T990 994L992
75Q992 34 970 5T906 -25Q865 -25 843 4T809 75L792 135Z" />
<glyph unicode="&#xfa;" glyph-name="uacute" horiz-adv-x="1086" d="M863 1660Q909 1660 936 1628T963 1558Q963 1519 935 1490L611 1190Q571 1147 535 1147Q510 1147 488 1169T466 1215Q466 1250 506 1290L790 1628Q819 1660 863 1660ZM792 135Q738 82 663 30T487
-22Q356 -22 269 47T141 209Q109 282 103 353T96 488V993Q96 1034 125 1063T196 1093Q237 1093 266 1064T296 993V488Q296 429 301 379T324 291Q343 247 383 213T485 178Q633 178 712 291T791 596L790 995Q790 1036 819 1065T890 1095Q932 1095 961 1066T990 994L992
75Q992 34 970 5T906 -25Q865 -25 843 4T809 75L792 135Z" />
<glyph unicode="&#xfb;" glyph-name="ucircumflex" horiz-adv-x="1086" d="M457 1625Q469 1637 489 1646T528 1655Q567 1655 597 1627L914 1324Q928 1312 937 1290T946 1250Q946 1209 917 1180T846 1150Q805 1150 776 1179L530 1415L296 1178Q267 1147 224 1147Q183
1147 154 1176T124 1247Q124 1288 154 1318L457 1625ZM792 135Q738 82 663 30T487 -22Q356 -22 269 47T141 209Q109 282 103 353T96 488V993Q96 1034 125 1063T196 1093Q237 1093 266 1064T296 993V488Q296 429 301 379T324 291Q343 247 383 213T485 178Q633 178
712 291T791 596L790 995Q790 1036 819 1065T890 1095Q932 1095 961 1066T990 994L992 75Q992 34 970 5T906 -25Q865 -25 843 4T809 75L792 135Z" />
<glyph unicode="&#xfc;" glyph-name="udieresis" horiz-adv-x="1086" d="M683 1147Q632 1147 595 1182T557 1269Q557 1320 594 1355T683 1390Q734 1390 772 1355T810 1269Q810 1218 772 1183T683 1147ZM386 1147Q335 1147 298 1182T260 1269Q260 1320 297 1355T386
1390Q437 1390 475 1355T513 1269Q513 1218 475 1183T386 1147ZM792 135Q738 82 663 30T487 -22Q356 -22 269 47T141 209Q109 282 103 353T96 488V993Q96 1034 125 1063T196 1093Q237 1093 266 1064T296 993V488Q296 429 301 379T324 291Q343 247 383 213T485 178Q633
178 712 291T791 596L790 995Q790 1036 819 1065T890 1095Q932 1095 961 1066T990 994L992 75Q992 34 970 5T906 -25Q865 -25 843 4T809 75L792 135Z" />
<glyph unicode="&#xfd;" glyph-name="yacute" horiz-adv-x="1065" d="M829 1705Q875 1705 902 1673T929 1603Q929 1564 901 1535L577 1235Q537 1192 501 1192Q476 1192 454 1214T432 1260Q432 1295 472 1335L756 1673Q785 1705 829 1705ZM125 1101Q154 1101 179
1084T216 1042L556 269L847 1035Q858 1062 883 1080T940 1098Q981 1098 1010 1069T1040 998Q1040 977 1032 959L664 -1Q662 -14 657 -24T647 -42L591 -182Q570 -234 541 -292T461 -403Q412 -454 342 -489T194 -524Q152 -524 123 -494T94 -422Q94 -382 121 -353T188
-322Q276 -316 324 -254T406 -106L454 16L34 958Q25 979 25 1001Q25 1042 54 1071T125 1101Z" />
<glyph unicode="&#xfe;" glyph-name="thorn" horiz-adv-x="1092" d="M100 1212Q100 1249 126 1275T190 1302Q227 1302 253 1275T280 1211L282 961Q336 998 389 1017T527 1037Q664 1037 768 964T932 773T992 517Q992 375 929 253T756 55T505 -21Q451 -21 396 -6T287
40L281 -310Q281 -347 255 -373T192 -400Q155 -400 128 -373T101 -309L100 1212ZM811 522Q811 607 775 684T675 809T527 857Q464 857 409 831T320 759T285 657Q285 656 285 649T285 610T284 503T286 294Q287 251 320 221T404 175T507 159Q600 159 668 212T774 349T811
522Z" />
<glyph unicode="&#xff;" glyph-name="ydieresis" horiz-adv-x="1065" d="M677 1184Q626 1184 589 1219T551 1306Q551 1357 588 1392T677 1427Q728 1427 766 1392T804 1306Q804 1255 766 1220T677 1184ZM380 1184Q329 1184 292 1219T254 1306Q254 1357 291 1392T380
1427Q431 1427 469 1392T507 1306Q507 1255 469 1220T380 1184ZM125 1101Q154 1101 179 1084T216 1042L556 269L847 1035Q858 1062 883 1080T940 1098Q981 1098 1010 1069T1040 998Q1040 977 1032 959L664 -1Q662 -14 657 -24T647 -42L591 -182Q570 -234 541 -292T461
-403Q412 -454 342 -489T194 -524Q152 -524 123 -494T94 -422Q94 -382 121 -353T188 -322Q276 -316 324 -254T406 -106L454 16L34 958Q25 979 25 1001Q25 1042 54 1071T125 1101Z" />
<glyph unicode="&#x2013;" glyph-name="endash" horiz-adv-x="992" d="M892 524L891 404H100L101 524H892Z" />
<glyph unicode="&#x2014;" glyph-name="emdash" horiz-adv-x="1431" d="M1331 572V452H100V572H1331Z" />
<glyph unicode="&#x2018;" glyph-name="quoteleft" horiz-adv-x="456" d="M431 1346Q431 1292 392 1247T300 1202Q253 1202 222 1218Q125 1270 125 1388Q125 1443 146 1513Q195 1676 320 1759Q339 1772 360 1772Q388 1772 408 1750T429 1697Q429 1664 394 1640Q313
1587 285 1490H287Q346 1490 388 1448T431 1346Z" />
<glyph unicode="&#x2019;" glyph-name="quoteright" horiz-adv-x="456" d="M126 1599Q126 1653 165 1698T257 1743Q304 1743 335 1727Q432 1675 432 1557Q432 1502 411 1432Q362 1269 237 1186Q218 1173 197 1173Q169 1173 149 1195T128 1248Q128 1281 163 1305Q244
1358 272 1455H270Q211 1455 169 1497T126 1599Z" />
<glyph unicode="&#x201a;" glyph-name="quotesinglbase" horiz-adv-x="536" d="M125 139Q125 193 164 238T256 283Q303 283 334 267Q431 215 431 97Q431 42 410 -28Q361 -191 236 -274Q217 -287 196 -287Q168 -287 148 -265T127 -212Q127 -179 162 -155Q243 -102
271 -5H269Q210 -5 168 37T125 139Z" />
<glyph unicode="&#x201c;" glyph-name="quotedblleft" horiz-adv-x="880" d="M855 1346Q855 1292 816 1247T724 1202Q677 1202 646 1218Q549 1270 549 1388Q549 1443 570 1513Q619 1676 744 1759Q763 1772 784 1772Q812 1772 832 1750T853 1697Q853 1664 818 1640Q737
1587 709 1490H711Q770 1490 812 1448T855 1346ZM431 1346Q431 1292 392 1247T300 1202Q253 1202 222 1218Q125 1270 125 1388Q125 1443 146 1513Q195 1676 320 1759Q339 1772 360 1772Q388 1772 408 1750T429 1697Q429 1664 394 1640Q313 1587 285 1490H287Q346
1490 388 1448T431 1346Z" />
<glyph unicode="&#x201d;" glyph-name="quotedblright" horiz-adv-x="880" d="M126 1630Q126 1684 165 1729T257 1774Q304 1774 335 1758Q432 1706 432 1588Q432 1533 411 1463Q362 1300 237 1217Q218 1204 197 1204Q169 1204 149 1226T128 1279Q128 1312 163
1336Q244 1389 272 1486H270Q211 1486 169 1528T126 1630ZM550 1630Q550 1684 589 1729T681 1774Q728 1774 759 1758Q856 1706 856 1588Q856 1533 835 1463Q786 1300 661 1217Q642 1204 621 1204Q593 1204 573 1226T552 1279Q552 1312 587 1336Q668 1389 696 1486H694Q635
1486 593 1528T550 1630Z" />
<glyph unicode="&#x201e;" glyph-name="quotedblbase" horiz-adv-x="980" d="M126 140Q126 194 165 239T257 284Q304 284 335 268Q432 216 432 98Q432 43 411 -27Q362 -190 237 -273Q218 -286 197 -286Q169 -286 149 -264T128 -211Q128 -178 163 -154Q244 -101
272 -4H270Q211 -4 169 38T126 140ZM550 140Q550 194 589 239T681 284Q728 284 759 268Q856 216 856 98Q856 43 835 -27Q786 -190 661 -273Q642 -286 621 -286Q593 -286 573 -264T552 -211Q552 -178 587 -154Q668 -101 696 -4H694Q635 -4 593 38T550 140Z" />
<glyph unicode="&#x2022;" glyph-name="bullet" horiz-adv-x="641" d="M320 478Q232 478 166 540T100 692Q100 782 166 843T320 905Q409 905 475 844T541 692Q541 603 475 541T320 478Z" />
</font>
</defs>
</svg>
