<svg width="437" height="584" viewBox="0 0 437 584" fill="none" xmlns="http://www.w3.org/2000/svg">
<g filter="url(#filter0_d)">
<path fill-rule="evenodd" clip-rule="evenodd" d="M184.742 262L287.799 425.21L365.062 563.191H381.703L252.248 262L184.742 262Z" fill="#7D5E41"/>
<path fill-rule="evenodd" clip-rule="evenodd" d="M354.886 556.821C353.335 560.745 352.559 563.68 352.559 565.628C352.559 567.998 352.975 571.455 353.809 576C356.71 576 382.785 576 432.033 576C434.066 569.634 432.893 566.197 428.513 565.69C424.133 565.182 420.495 564.724 417.598 564.315L381.24 548.96C380.541 548.665 379.721 548.963 379.409 549.625C379.403 549.637 379.398 549.648 379.393 549.66L377.056 555.03C373.002 556.822 369.707 557.718 367.172 557.718C365.113 557.718 362.269 556.93 358.64 555.354L358.64 555.354C357.247 554.749 355.601 555.329 354.962 556.648C354.935 556.705 354.909 556.762 354.886 556.821Z" fill="black"/>
<path fill-rule="evenodd" clip-rule="evenodd" d="M343.603 541.096L375.697 531.899C361.636 492.08 344.402 448.261 323.996 400.442C303.589 352.622 281.673 306.475 258.248 262H167.605C193.649 318.259 221.258 369.377 250.434 415.354C279.61 461.332 310.667 503.246 343.603 541.096Z" fill="#FF5A00"/>
<path fill-rule="evenodd" clip-rule="evenodd" d="M177.969 262C168.242 319.353 149.482 392.629 147.712 394.89C146.531 396.397 104.04 409.885 20.2389 435.353L23.8337 449.254C123.767 435.596 176.423 424.999 181.802 417.464C189.871 406.161 230.161 316.869 245.766 262H177.969Z" fill="#7D5E41"/>
<path fill-rule="evenodd" clip-rule="evenodd" d="M49.6966 423.336L56.0285 445.725C130.773 451.935 176.57 447.448 193.421 432.264C210.271 417.08 229.476 360.325 251.035 262H164.601C150.942 342.515 143.305 384.463 141.692 387.843C140.078 391.223 109.413 403.054 49.6966 423.336Z" fill="#FF5A00"/>
<path fill-rule="evenodd" clip-rule="evenodd" d="M24.3429 429.562C19.9944 428.795 16.8076 428.581 14.7825 428.92C12.3194 429.331 8.79764 430.32 4.21705 431.887C4.72086 434.593 9.24872 458.919 17.8006 504.862C24.7718 505.653 28.141 503.962 27.9082 499.788C27.6754 495.614 27.5201 492.14 27.4423 489.367L37.0912 452.782C37.2768 452.078 36.8249 451.365 36.0818 451.189C36.0691 451.186 36.0563 451.183 36.0435 451.18L30.0547 449.933C27.4877 446.462 25.9841 443.544 25.5439 441.179C25.1863 439.258 25.5115 436.467 26.5196 432.808L26.5196 432.808C26.9065 431.404 26.0185 429.969 24.5362 429.602C24.4723 429.587 24.4078 429.573 24.3429 429.562Z" fill="black"/>
</g>
<g filter="url(#filter1_d)">
<path fill-rule="evenodd" clip-rule="evenodd" d="M186.421 92.7517C203.059 92.7517 209.111 73.1386 218.564 62.3755C225.327 54.6747 236.87 56.971 240.287 46.19C248.878 19.0804 225.883 0 195.884 0C165.885 0 145.657 16.734 141.29 41.8898C136.922 67.0455 156.422 92.7517 186.421 92.7517Z" fill="black"/>
<path fill-rule="evenodd" clip-rule="evenodd" d="M188.258 75.2401C181.55 67.4871 177.01 57.9857 177.768 47.3391C179.954 16.6634 223.324 23.4117 231.76 38.8942C240.197 54.3766 239.194 93.6492 228.291 96.4164C223.943 97.5199 214.68 94.8167 205.252 89.2219L211.17 130.441H176.23L188.258 75.2401Z" fill="#7D5E41"/>
<path fill-rule="evenodd" clip-rule="evenodd" d="M202.988 55.5066C201.718 54.8453 200.264 54.4697 198.718 54.4697C193.768 54.4697 189.755 58.3203 189.755 63.0702C189.755 65.0089 190.423 66.7978 191.551 68.2361C189.427 71.6827 187.978 75.304 187.503 79.0267C180.142 79.0267 153.277 51.6029 180.039 25.8015C206.802 1.90735e-06 245.478 36.833 233.856 38.981C227.175 40.216 213.717 46.497 202.988 55.5066Z" fill="black"/>
<path fill-rule="evenodd" clip-rule="evenodd" d="M292.761 226.655L334.002 266.267C346.002 271.307 355.834 276.872 363.498 282.962C365.221 285.009 367.098 288.931 358.988 287.176C350.879 285.421 342.269 283.934 340.745 286.53C339.221 289.127 343.712 293.106 340.895 296.504C339.017 298.77 332.702 291.563 321.949 274.885L279.064 249.991L292.761 226.655ZM109.71 232.242L140.133 232.359C121.348 292.066 111.207 323.746 109.71 327.4C106.341 335.62 113.47 348.139 116.518 354.866C106.589 359.241 107.647 343.04 95.1223 348.778C83.69 354.014 74.9936 363.503 61.7853 355.479C60.1614 354.492 58.3819 350.778 62.6814 347.875C73.3931 340.643 88.8292 327.986 90.9149 323.82C93.7591 318.139 100.024 287.613 109.71 232.242Z" fill="#7D5E41"/>
<path fill-rule="evenodd" clip-rule="evenodd" d="M196.168 106.549L208.756 104.423C230.43 157.732 268.27 206.17 322.277 249.737L281.467 298.553C227.467 236.52 194.181 172.518 196.168 106.549Z" fill="#03989E"/>
<path fill-rule="evenodd" clip-rule="evenodd" d="M141.29 262.315H253.389C227.418 200.141 214.433 147.324 214.433 103.866L180.618 98.9056C154.043 140.988 146.538 192.801 141.29 262.315Z" fill="#C4C4C4"/>
<path fill-rule="evenodd" clip-rule="evenodd" d="M179.902 98.9291C179.907 98.9213 179.911 98.9134 179.915 98.9056H182.123C184.764 98.9951 188.787 99.1565 194.192 99.3896L202.362 122.38C203.227 150.412 208.274 206.902 217.504 291.852H144.021C144.214 297.719 144.531 303.641 144.974 309.617H90.3356C98.5086 218.831 128.355 148.593 179.875 98.9056L179.902 98.9291Z" fill="#03989E"/>
<path fill-rule="evenodd" clip-rule="evenodd" d="M148.875 216.78C150.966 253.353 156.202 278.565 164.583 292.416H144.04C143.141 266.103 144.752 240.891 148.875 216.78V216.78Z" fill="black" fill-opacity="0.1"/>
<path fill-rule="evenodd" clip-rule="evenodd" d="M160.377 247.981L196.612 231.395V247.981H160.377Z" fill="white" fill-opacity="0.2"/>
</g>
<defs>
<filter id="filter0_d" x="0.217041" y="262" width="436.783" height="322" filterUnits="userSpaceOnUse" color-interpolation-filters="sRGB">
<feFlood flood-opacity="0" result="BackgroundImageFix"/>
<feColorMatrix in="SourceAlpha" type="matrix" values="0 0 0 0 0 0 0 0 0 0 0 0 0 0 0 0 0 0 127 0"/>
<feOffset dy="4"/>
<feGaussianBlur stdDeviation="2"/>
<feColorMatrix type="matrix" values="0 0 0 0 0 0 0 0 0 0 0 0 0 0 0 0 0 0 0.25 0"/>
<feBlend mode="normal" in2="BackgroundImageFix" result="effect1_dropShadow"/>
<feBlend mode="normal" in="SourceGraphic" in2="effect1_dropShadow" result="shape"/>
</filter>
<filter id="filter1_d" x="56" y="0" width="313" height="366.578" filterUnits="userSpaceOnUse" color-interpolation-filters="sRGB">
<feFlood flood-opacity="0" result="BackgroundImageFix"/>
<feColorMatrix in="SourceAlpha" type="matrix" values="0 0 0 0 0 0 0 0 0 0 0 0 0 0 0 0 0 0 127 0"/>
<feOffset dy="4"/>
<feGaussianBlur stdDeviation="2"/>
<feColorMatrix type="matrix" values="0 0 0 0 0 0 0 0 0 0 0 0 0 0 0 0 0 0 0.25 0"/>
<feBlend mode="normal" in2="BackgroundImageFix" result="effect1_dropShadow"/>
<feBlend mode="normal" in="SourceGraphic" in2="effect1_dropShadow" result="shape"/>
</filter>
</defs>
</svg>
